<svg width="66" height="66" viewBox="0 0 66 66" fill="none" xmlns="http://www.w3.org/2000/svg">
<circle opacity="0.12" cx="33" cy="33" r="33" fill="#DB524E"/>
<path fill-rule="evenodd" clip-rule="evenodd" d="M21.3164 41.3452C20.3945 42.267 20.3945 43.7616 21.3164 44.6834C22.2382 45.6052 23.7327 45.6052 24.6545 44.6834L32.9998 36.3381L41.3455 44.6837C42.2673 45.6055 43.7618 45.6055 44.6836 44.6837C45.6054 43.7619 45.6054 42.2674 44.6836 41.3456L36.338 32.9999L44.6835 24.6545C45.6053 23.7327 45.6053 22.2381 44.6835 21.3163C43.7616 20.3945 42.2671 20.3945 41.3453 21.3163L32.9998 29.6618L24.6547 21.3166C23.7329 20.3948 22.2383 20.3948 21.3165 21.3166C20.3947 22.2384 20.3947 23.733 21.3165 24.6548L29.6617 32.9999L21.3164 41.3452Z" fill="#F61414"/>
</svg>
