<svg width="22" height="22" viewBox="0 0 22 22" fill="none" xmlns="http://www.w3.org/2000/svg">
<path d="M2.75 5.5H4.58333H19.25" stroke="#9A9A9A" stroke-width="2" stroke-linecap="round" stroke-linejoin="round"/>
<path d="M7.33398 5.49967V3.66634C7.33398 3.18011 7.52714 2.7138 7.87096 2.36998C8.21477 2.02616 8.68109 1.83301 9.16732 1.83301H12.834C13.3202 1.83301 13.7865 2.02616 14.1303 2.36998C14.4742 2.7138 14.6673 3.18011 14.6673 3.66634V5.49967M17.4173 5.49967V18.333C17.4173 18.8192 17.2242 19.2856 16.8803 19.6294C16.5365 19.9732 16.0702 20.1663 15.584 20.1663H6.41732C5.93109 20.1663 5.46477 19.9732 5.12096 19.6294C4.77714 19.2856 4.58398 18.8192 4.58398 18.333V5.49967H17.4173Z" stroke="#9A9A9A" stroke-width="2" stroke-linecap="round" stroke-linejoin="round"/>
</svg>
