<svg width="524" height="250" viewBox="0 0 524 250" fill="none" xmlns="http://www.w3.org/2000/svg">
<path d="M53.7769 140.369L51.7939 162.044L54.7364 162.501L63.0793 143.22L53.7769 140.369Z" fill="#FAB17E"/>
<path d="M55.1295 160.272C54.7481 161.555 54.6606 162.907 54.8736 164.228C55.1569 165.352 53.4024 166.906 51.4652 169.044C51.2641 169.263 50.9077 169.044 50.9443 168.752C50.9773 168.569 51.0325 168.391 51.1088 168.222C51.5019 167.445 51.954 166.7 52.4612 165.992C52.3789 165.672 50.3138 166.787 49.1532 167.564C48.477 168.012 46.5124 170.122 45.9915 169.812C45.4706 169.501 46.3113 167.463 47.2251 165.955C48.1389 164.448 51.392 163.214 51.7941 162.044C52.1962 160.875 55.1295 160.272 55.1295 160.272Z" fill="#FAB17E"/>
<path d="M64.6421 61.7551L86.226 52.5531L106.119 62.0384L86.226 72.1358L64.6421 61.7551Z" fill="#243962"/>
<path d="M68.1327 72.3277L68.4434 71.9165C64.0937 68.6451 64.9435 63.1806 65.1994 61.9287C65.2178 61.8516 65.2119 61.7706 65.1825 61.697C65.153 61.6233 65.1015 61.5606 65.0349 61.5175C65.005 61.4951 64.9698 61.4807 64.9327 61.4758C64.8956 61.4708 64.8579 61.4754 64.8231 61.4891C64.7883 61.5029 64.7575 61.5253 64.7339 61.5542C64.7102 61.5832 64.6943 61.6177 64.6877 61.6546C64.4044 63.0892 63.6003 68.9193 68.1327 72.3277Z" fill="#EFCBAC"/>
<path d="M68.4435 71.9165L69.0923 72.1633L68.544 72.8577L68.1328 72.3277L68.4435 71.9165Z" fill="#D8AA88"/>
<path d="M69.0924 72.1633C69.0924 72.1633 69.8965 72.7481 70.1798 72.5653C70.1798 72.5653 69.9239 73.3329 69.5219 73.4152C69.1628 73.3009 68.8325 73.1108 68.5532 72.8578L69.0924 72.1633Z" fill="#EFCBAC"/>
<path d="M78.5864 226.257L77.1244 232.416L75.1871 240.585H69.1104L68.7448 232.754L68.4707 226.723L78.5864 226.257Z" fill="#FAB17E"/>
<path d="M66.7164 249.55C66.694 248.219 66.8352 246.89 67.1368 245.593C67.5571 244.606 69.1106 240.576 69.1106 240.576H75.1873C75.6944 242.174 76.0943 243.805 76.3844 245.456C76.4575 246.653 76.3844 249.55 76.3844 249.55H66.7164Z" fill="#243962"/>
<path d="M105.297 249.55C105.32 248.218 105.176 246.889 104.868 245.593C104.447 244.606 102.894 240.576 102.894 240.576H96.817C96.3099 242.174 95.91 243.805 95.6199 245.456C95.5468 246.653 95.6199 249.55 95.6199 249.55H105.297Z" fill="#243962"/>
<path d="M80.9443 82.7085C80.9443 82.7085 80.725 89.3335 79.8751 92.2942L73.177 106.75L88.0079 127.293L98.4161 100.747L92.3942 92.4312C92.3942 92.4312 90.5666 83.5583 91.5352 80.2777C92.5038 76.9972 80.9443 82.7085 80.9443 82.7085Z" fill="#FAB17E"/>
<path d="M80.9077 83.6223C80.9077 83.6223 82.8998 88.4288 86.6555 88.3192C90.4112 88.2095 91.2702 83.9695 91.2702 83.9695L80.9077 83.6223Z" fill="#EE9960"/>
<path d="M78.6598 79.7387C78.6598 79.7387 77.4444 73.671 76.5946 71.8343C75.7448 69.9976 75.0411 61.7825 84.435 61.3896C84.435 61.3896 88.0354 61.8099 90.0092 60.6129C90.0092 60.6129 90.0092 61.8099 89.5157 62.2394C89.5157 62.2394 91.9647 60.6951 94.5051 63.5187C97.0454 66.3424 93.5912 76.9881 93.8288 79.3183L78.6598 79.7387Z" fill="#132744"/>
<path d="M86.2259 86.4642C83.4846 86.4185 78.4861 82.809 78.4861 78.2948V71.3134C78.4378 70.5823 78.6775 69.8613 79.154 69.3046C79.6304 68.7479 80.3057 68.3997 81.0356 68.3344H91.4255C92.1546 68.3997 92.829 68.7482 93.304 69.3052C93.7789 69.8621 94.0166 70.5832 93.9658 71.3134V77.9293C93.9658 82.6171 89.3511 86.519 86.2259 86.4642Z" fill="#FAB17E"/>
<path d="M78.486 75.0326C78.486 75.0326 78.486 70.82 81.8396 70.1712C85.1932 69.5224 92.6407 72.2272 93.719 69.1569C94.7972 66.0865 79.2901 66.1322 78.5042 68.0969C77.7184 70.0615 78.486 75.0326 78.486 75.0326Z" fill="#132744"/>
<path d="M79.875 92.2942L86.0888 93.6923L92.3575 92.1754L93.9657 101.807L86.9204 125.785L79.217 97.0551L79.875 92.2942Z" fill="white"/>
<path d="M79.5735 94.268L84.508 97.9506L86.1163 95.3006L87.6149 97.9506L92.8692 93.3725L91.8367 92.1754L86.0889 93.6923L79.875 93.409L79.5735 94.268Z" fill="#D3E1F4"/>
<path d="M105.407 146.556L90.6397 147.469C90.5483 147.332 90.4569 147.332 90.3473 147.469L85.9976 147.743L67.4749 146.583C67.4749 146.583 62.8145 167.856 64.6421 196.193C65.227 205.24 66.5337 232.014 67.7765 241.49L80.4783 241.618C82.1231 230.908 84.0238 204.152 85.0472 199.583C85.5102 197.5 85.9458 195.435 86.354 193.388C86.6776 195.172 86.8761 196.976 86.9479 198.788C87.1266 201.652 87.564 204.493 88.2547 207.277C89.3147 212.367 92.4581 235.824 93.3994 241.956H106.723C106.878 233.513 107.636 204.856 107.755 196.184C108.157 173.111 105.407 146.556 105.407 146.556Z" fill="#EE994B"/>
<path d="M115.614 221.277C108.815 224.841 62.5588 229.062 54.2615 219.276C52.8542 217.612 72.5374 93.6923 72.5374 93.6923C72.5374 93.6923 73.8076 93.3177 75.955 92.9156C77.0425 92.7146 78.3583 92.4952 79.857 92.3216C79.857 92.7785 83.0644 112.909 87.4141 120.759C87.4141 120.759 92.3394 109.921 92.3669 92.4313C92.3718 92.3461 92.3718 92.2606 92.3669 92.1754C93.2807 92.2759 94.2401 92.4039 95.1905 92.5684L96.3967 92.7968C97.9427 93.106 99.4685 93.5088 100.966 94.003C100.966 94.003 117.03 220.537 115.614 221.277Z" fill="#1C478A"/>
<path d="M77.9288 92.5501C77.9288 92.5501 70.856 146.921 68.1329 151.033C66.9998 152.742 65.3366 153.016 63.3811 152.632C62.9929 152.561 62.6086 152.469 62.2297 152.358L56.8018 150.275C55.888 149.918 55.0381 149.589 54.1518 149.315C48.5685 147.588 49.0071 142.919 50.4966 136.522C51.9861 130.125 61.8277 99.3031 65.1173 97.1282C69.0083 94.6974 73.3784 93.1358 77.9288 92.5501Z" fill="#1C478A"/>
<path d="M92.3665 92.1754C88.2135 91.753 84.026 91.8021 79.884 92.3216C79.884 92.3216 91.4344 85.1483 92.3665 92.1754Z" fill="#FAB17E"/>
<path d="M88.3004 125.785C81.1454 120.521 75.9824 92.8882 75.9824 92.8882C77.0698 92.6871 78.3857 92.4678 79.8843 92.2942C79.8843 92.7511 82.9181 111.776 87.2587 119.617C87.2587 119.617 92.3668 109.894 92.3942 92.4039C92.3992 92.3187 92.3992 92.2332 92.3942 92.148C93.308 92.2485 94.2675 92.3765 95.2179 92.541L96.4241 92.7694C96.4058 107.527 88.3004 125.785 88.3004 125.785Z" fill="#BE4040"/>
<path d="M83.8135 81.2738C85.398 81.0863 86.999 81.0863 88.5835 81.2738C88.3522 81.642 88.0388 81.9516 87.6678 82.1783C87.2968 82.405 86.8783 82.5427 86.4452 82.5806C85.1293 82.608 84.1333 82.1145 83.8135 81.2738Z" fill="#FFF0E7"/>
<path d="M75.9458 64.9625L76.1377 68.1334C76.1377 68.1334 83.4481 63.2446 95.4462 67.7314L95.2818 63.1624C95.1931 62.7207 95.0122 62.3027 94.7508 61.9357C94.4894 61.5688 94.1534 61.2613 93.7649 61.0332C91.5078 59.7448 86.2443 57.378 77.9196 61.3622C76.7499 61.9013 76.0555 63.665 75.9458 64.9625Z" fill="#1C478A"/>
<path d="M80.4234 89.3792L77.9287 92.5501L84.5263 97.0551L86.0889 93.6923L80.4234 89.3792Z" fill="white"/>
<path d="M91.8549 89.3792L86.0889 93.6923L87.7428 97.0551L93.4175 92.3033L91.8549 89.3792Z" fill="white"/>
<path d="M85.9062 101.131C85.9472 101.087 85.9967 101.052 86.0517 101.028C86.1067 101.004 86.1661 100.992 86.226 100.992C86.2859 100.992 86.3452 101.004 86.4002 101.028C86.4553 101.052 86.5048 101.087 86.5458 101.131C86.6295 101.216 86.6764 101.331 86.6764 101.45C86.6764 101.57 86.6295 101.685 86.5458 101.77C86.461 101.855 86.346 101.903 86.226 101.903C86.106 101.903 85.991 101.855 85.9062 101.77C85.8213 101.685 85.7737 101.57 85.7737 101.45C85.7737 101.331 85.8213 101.215 85.9062 101.131Z" fill="#D3E1F4"/>
<path d="M86.2169 106.805C86.4692 106.805 86.6738 106.601 86.6738 106.348C86.6738 106.096 86.4692 105.892 86.2169 105.892C85.9646 105.892 85.76 106.096 85.76 106.348C85.76 106.601 85.9646 106.805 86.2169 106.805Z" fill="#D3E1F4"/>
<path d="M85.9061 111.064C85.9916 110.98 86.1064 110.933 86.226 110.933C86.3456 110.933 86.4604 110.98 86.5458 111.064C86.6301 111.151 86.6773 111.267 86.6773 111.388C86.6773 111.509 86.6301 111.625 86.5458 111.712C86.4604 111.796 86.3456 111.843 86.226 111.843C86.1064 111.843 85.9916 111.796 85.9061 111.712C85.8633 111.67 85.8293 111.619 85.8061 111.564C85.7829 111.508 85.771 111.448 85.771 111.388C85.771 111.328 85.7829 111.268 85.8061 111.212C85.8293 111.157 85.8633 111.106 85.9061 111.064Z" fill="#D3E1F4"/>
<path d="M100.975 94.003C104.056 95.5387 106.479 98.1344 107.801 101.313C110.177 106.796 120.046 121.636 119.753 128.599C119.461 135.563 118.127 141.904 111.529 142.124C106.96 142.27 102.336 137.82 102.336 131.158C102.336 124.496 100.975 94.003 100.975 94.003Z" fill="#1C478A"/>
<path d="M115.102 138.203C114.919 140.077 114.188 141.594 112.534 142.014C107.216 143.348 104.867 138.213 105.982 133.187C105.982 133.013 106.064 132.858 106.11 132.702C107.243 129.047 111.328 128.462 112.836 128.38C113.192 128.38 113.402 128.38 113.402 128.38C113.434 128.458 113.462 128.537 113.484 128.618C113.868 129.732 115.44 134.621 115.102 138.203Z" fill="#243962"/>
<path d="M115.102 138.203C115.102 138.203 99.5674 131.222 93.4541 123.208C93.0063 122.614 94.1669 121.892 94.1669 121.892L112.836 128.38L113.485 128.609C113.868 129.733 115.44 134.621 115.102 138.203Z" fill="#FAB17E"/>
<path d="M96.8626 122.276H76.3752V149.27H96.8626V122.276Z" fill="#FBEBDB"/>
<path d="M84.7913 141.31L82.4885 145.157L83.9415 144.947L84.5628 146.108L86.5184 142.571L84.7913 141.31Z" fill="#942525"/>
<path d="M87.8434 141.073L90.1462 144.92L88.6841 144.71L88.0627 145.87L86.1072 142.325L87.8434 141.073Z" fill="#942525"/>
<path d="M83.9782 140.451C84.0233 139.789 84.3076 139.165 84.7782 138.696C85.2489 138.227 85.8738 137.945 86.5368 137.902C88.3644 137.619 89.0954 139.044 89.0954 140.451C89.0954 141.13 88.8259 141.781 88.346 142.261C87.8662 142.74 87.2154 143.01 86.5368 143.01C86.1966 143.026 85.857 142.97 85.5395 142.847C85.222 142.724 84.9336 142.536 84.6929 142.295C84.4521 142.055 84.2642 141.766 84.1411 141.449C84.0181 141.131 83.9626 140.792 83.9782 140.451Z" fill="#BE4040"/>
<path d="M86.5367 142.489C86.2252 142.487 85.9176 142.419 85.6342 142.29C85.3507 142.161 85.0978 141.974 84.8918 141.74C84.7335 141.565 84.616 141.357 84.5481 141.131C84.4801 140.905 84.4633 140.666 84.4989 140.433C84.5274 139.907 84.7493 139.409 85.1221 139.037C85.4948 138.664 85.992 138.442 86.5184 138.414C86.7618 138.36 87.0142 138.363 87.2564 138.422C87.4986 138.48 87.7243 138.593 87.9165 138.752C88.1411 138.972 88.3161 139.237 88.4295 139.53C88.543 139.823 88.5924 140.138 88.5744 140.451C88.5744 140.992 88.3597 141.51 87.9776 141.892C87.5954 142.274 87.0771 142.489 86.5367 142.489ZM86.8656 138.624H86.5549C86.0788 138.65 85.629 138.851 85.2918 139.188C84.9546 139.525 84.7536 139.975 84.7273 140.451C84.7008 140.651 84.7182 140.855 84.7781 141.047C84.8381 141.24 84.9392 141.417 85.0746 141.566C85.2582 141.773 85.4832 141.94 85.735 142.055C85.9868 142.169 86.2599 142.23 86.5367 142.233C87.0214 142.233 87.4862 142.041 87.829 141.698C88.1717 141.355 88.3643 140.89 88.3643 140.406C88.3803 140.125 88.3373 139.845 88.2381 139.582C88.139 139.319 87.9858 139.08 87.7886 138.88C87.5228 138.684 87.1943 138.593 86.8656 138.624Z" fill="#942525"/>
<path d="M89.47 125.529H83.7679C83.7225 125.527 83.6796 125.508 83.6475 125.476C83.6155 125.444 83.5965 125.401 83.5942 125.355C83.5942 125.309 83.6125 125.265 83.6451 125.233C83.6777 125.2 83.7218 125.182 83.7679 125.182H89.47C89.516 125.182 89.5602 125.2 89.5927 125.233C89.6253 125.265 89.6436 125.309 89.6436 125.355C89.6414 125.401 89.6224 125.444 89.5903 125.476C89.5582 125.508 89.5153 125.527 89.47 125.529Z" fill="#1C478A"/>
<path d="M90.5756 126.242H82.6621C82.6161 126.242 82.5719 126.224 82.5394 126.191C82.5068 126.158 82.4885 126.114 82.4885 126.068C82.4909 126.024 82.5102 125.982 82.5425 125.951C82.5748 125.921 82.6176 125.904 82.6621 125.904H90.5756C90.6201 125.904 90.663 125.921 90.6953 125.951C90.7276 125.982 90.7469 126.024 90.7493 126.068C90.7493 126.114 90.731 126.158 90.6984 126.191C90.6659 126.224 90.6217 126.242 90.5756 126.242Z" fill="#1C478A"/>
<path d="M92.5038 132.2H80.7798C80.7289 132.2 80.6801 132.18 80.6441 132.144C80.6081 132.108 80.5879 132.059 80.5879 132.008C80.5866 131.982 80.5907 131.956 80.5998 131.932C80.6088 131.907 80.6228 131.885 80.6407 131.866C80.6587 131.847 80.6803 131.832 80.7042 131.822C80.7281 131.812 80.7538 131.807 80.7798 131.807H92.5038C92.5555 131.809 92.6043 131.831 92.6401 131.869C92.6758 131.906 92.6957 131.956 92.6957 132.008C92.6957 132.059 92.6755 132.108 92.6395 132.144C92.6035 132.18 92.5547 132.2 92.5038 132.2Z" fill="#1C478A"/>
<path d="M92.5038 133.187H80.7798C80.7538 133.187 80.7281 133.181 80.7042 133.171C80.6803 133.161 80.6587 133.146 80.6407 133.127C80.6228 133.108 80.6088 133.086 80.5998 133.062C80.5907 133.038 80.5866 133.012 80.5879 132.986C80.5879 132.935 80.6081 132.886 80.6441 132.85C80.6801 132.814 80.7289 132.794 80.7798 132.794H92.5038C92.5547 132.794 92.6035 132.814 92.6395 132.85C92.6755 132.886 92.6957 132.935 92.6957 132.986C92.6957 133.037 92.6758 133.087 92.6401 133.125C92.6043 133.162 92.5555 133.184 92.5038 133.187Z" fill="#1C478A"/>
<path d="M92.5038 134.046H80.7798C80.7538 134.046 80.7281 134.04 80.7042 134.03C80.6803 134.02 80.6587 134.005 80.6407 133.986C80.6228 133.967 80.6088 133.945 80.5998 133.921C80.5907 133.896 80.5866 133.871 80.5879 133.845C80.5879 133.794 80.6081 133.745 80.6441 133.709C80.6801 133.673 80.7289 133.653 80.7798 133.653H92.5038C92.5547 133.653 92.6035 133.673 92.6395 133.709C92.6755 133.745 92.6957 133.794 92.6957 133.845C92.6957 133.896 92.6758 133.946 92.6401 133.984C92.6043 134.021 92.5555 134.043 92.5038 134.046Z" fill="#1C478A"/>
<path d="M92.5038 134.978H80.7798C80.7289 134.978 80.6801 134.958 80.6441 134.922C80.6081 134.886 80.5879 134.837 80.5879 134.786C80.5866 134.76 80.5907 134.734 80.5998 134.71C80.6088 134.685 80.6228 134.663 80.6407 134.644C80.6587 134.625 80.6803 134.61 80.7042 134.6C80.7281 134.59 80.7538 134.585 80.7798 134.585H92.5038C92.5555 134.587 92.6043 134.609 92.6401 134.647C92.6758 134.684 92.6957 134.734 92.6957 134.786C92.6957 134.837 92.6755 134.886 92.6395 134.922C92.6035 134.958 92.5547 134.978 92.5038 134.978Z" fill="#1C478A"/>
<path d="M93.4176 140.552C93.0488 140.851 92.6543 141.117 92.2388 141.347C92.2767 141.241 92.2982 141.13 92.3027 141.018C92.3027 140.881 92.1839 140.817 92.0743 140.762L91.992 140.716C92.0093 140.691 92.0185 140.661 92.0185 140.63C92.0185 140.599 92.0093 140.568 91.992 140.543C91.9814 140.522 91.965 140.504 91.9449 140.491C91.9247 140.479 91.9015 140.472 91.8778 140.472C91.8541 140.472 91.8309 140.479 91.8107 140.491C91.7906 140.504 91.7742 140.522 91.7636 140.543C91.7593 140.561 91.7593 140.58 91.7636 140.598H91.7179L91.9098 140.205C91.918 140.193 91.9225 140.178 91.9225 140.164C91.9225 140.149 91.918 140.135 91.9098 140.122C91.8675 140.083 91.812 140.061 91.7544 140.061C91.6968 140.061 91.6413 140.083 91.5991 140.122C91.5655 140.186 91.5479 140.256 91.5479 140.328C91.5479 140.4 91.5655 140.47 91.5991 140.534C91.5168 140.689 91.4163 140.835 91.3158 140.991L91.2336 140.89C91.2865 140.772 91.3175 140.645 91.325 140.515C91.3259 140.503 91.3236 140.49 91.3184 140.479C91.3131 140.468 91.3051 140.458 91.2951 140.451C91.285 140.443 91.2732 140.439 91.2608 140.437C91.2485 140.436 91.236 140.438 91.2244 140.442C91.1595 140.467 91.1049 140.513 91.07 140.573C91.035 140.633 91.0218 140.703 91.0325 140.771C91.0185 140.816 91.0185 140.864 91.0325 140.908C90.9999 140.974 90.9633 141.038 90.9229 141.1C90.91 141.114 90.9029 141.132 90.9029 141.15C90.9029 141.169 90.91 141.187 90.9229 141.201C90.8878 141.351 90.819 141.492 90.7219 141.612C90.6305 141.694 90.4751 141.767 90.3746 141.658C90.3205 141.583 90.2917 141.494 90.2924 141.402C90.2787 141.183 90.2787 140.963 90.2924 140.744C90.2757 140.644 90.2757 140.542 90.2924 140.442C90.2924 140.387 90.3472 140.296 90.3746 140.397C90.3883 140.457 90.3883 140.519 90.3746 140.579C90.3746 140.671 90.5117 140.68 90.5208 140.579C90.53 140.479 90.5756 140.241 90.4568 140.177C90.338 140.113 90.2558 140.177 90.2101 140.287C90.0896 140.624 90.0643 140.987 90.137 141.338C90.137 141.594 90.2558 141.923 90.5939 141.831C90.932 141.74 91.0234 141.356 91.0965 141.082V141.036L91.1513 141.091L91.0508 141.228C91.0426 141.24 91.0382 141.255 91.0382 141.269C91.0382 141.284 91.0426 141.298 91.0508 141.31C91.0732 141.339 91.1047 141.36 91.1403 141.369C91.1758 141.378 91.2134 141.375 91.247 141.361C91.2806 141.346 91.3083 141.32 91.3258 141.288C91.3432 141.256 91.3494 141.219 91.3432 141.182C91.3514 141.152 91.3514 141.121 91.3432 141.091C91.4437 140.945 91.5351 140.799 91.6265 140.643C91.6489 140.667 91.6759 140.685 91.7058 140.698C91.7356 140.71 91.7677 140.717 91.8001 140.716C91.8365 140.755 91.8799 140.786 91.9281 140.808L92.0469 140.872C92.12 140.936 92.1017 140.991 92.0469 141.073C91.992 141.155 91.992 141.283 91.9646 141.383C91.8112 141.456 91.6905 141.583 91.6265 141.74C91.6022 141.812 91.6016 141.89 91.6246 141.962C91.6476 142.034 91.6931 142.097 91.7544 142.142C91.7613 142.15 91.7697 142.156 91.7792 142.16C91.7886 142.164 91.7989 142.167 91.8093 142.167C91.8196 142.167 91.8299 142.164 91.8393 142.16C91.8488 142.156 91.8572 142.15 91.8641 142.142C91.9463 141.941 92.0194 141.74 92.0834 141.53L92.4763 141.319C92.7955 141.118 93.1008 140.895 93.3901 140.652C93.6003 140.598 93.5089 140.488 93.4176 140.552ZM91.6813 140.36C91.6813 140.305 91.6813 140.196 91.7727 140.196L91.6813 140.387V140.36ZM91.8641 142.014C91.8001 141.904 91.8641 141.767 91.9829 141.667C91.9646 141.786 91.9189 141.904 91.8824 142.014H91.8641Z" fill="#1C478A"/>
<path d="M96.0585 148.502H77.3257V123.208H96.0585V148.502ZM77.5359 148.283H95.8118V123.4H77.5359V148.283Z" fill="#1C478A"/>
<path d="M89.6436 120.22C89.6436 120.22 85.8697 123.464 87.2221 123.948C88.5745 124.432 92.2297 122.276 92.9425 122.276H95.3001C95.3001 122.276 92.9699 119.58 91.7454 119.653C91.0122 119.689 90.2954 119.882 89.6436 120.22Z" fill="#FAB17E"/>
<path d="M68.1326 114.463L63.3809 152.641C62.9927 152.57 62.6084 152.478 62.2295 152.367L56.8015 150.284C56.8015 150.284 58.4738 148.548 60.7491 142.544C63.0245 136.54 68.1326 114.463 68.1326 114.463Z" fill="#243962"/>
<path d="M185.711 157.503C185.711 157.503 187.712 161.834 187.603 162.986C187.493 164.137 185.711 167.911 185.711 167.911L183.545 157.978L185.711 157.503Z" fill="#FAB17E"/>
<path d="M184.103 138.916L185.675 157.503L183.518 158.015L177.816 141.146L184.103 138.916Z" fill="#FAB17E"/>
<path d="M137.627 79.1904L159.101 66.516L173.85 76.851L153.418 88.767L137.627 79.1904Z" fill="#243962"/>
<path d="M148.657 85.0204C148.432 86.0144 148 86.9497 147.389 87.7653C146.778 88.581 146.002 89.2586 145.111 89.7539C142.105 91.3622 139.528 91.8282 140.177 97.0094C140.825 102.191 137.28 103.406 136.631 106.805C135.982 110.205 136.074 116.51 144.682 114.637C153.29 112.763 173.009 114.097 175.139 111.31C177.268 108.523 175.778 102.73 172.132 98.3345C168.486 93.9391 173.311 91.0241 171.593 87.1861C170.233 84.3849 168.552 81.7508 166.585 79.3366C166.585 79.3366 152.431 76.65 148.657 85.0204Z" fill="#132744"/>
<path d="M152.723 227.655L155.629 239.891L159.979 239.863L160.134 227.655H152.723Z" fill="#FAB17E"/>
<path d="M189.321 228.176L197.581 239.891L200.798 235.76L195.827 226.568L189.321 228.176Z" fill="#FAB17E"/>
<path d="M164.155 104.375C164.155 104.375 163.625 117.999 161.295 118.018C160.801 118.018 157.192 108.496 156.726 108.368C154.231 107.692 153.884 101.588 153.911 101.578C154.971 101.368 155.273 99.9153 155.254 93.6832L155.73 93.7746L163.762 95.3646C163.762 95.3646 163.579 97.8867 163.57 100.272C163.579 102.264 163.698 104.21 164.155 104.375Z" fill="#FAB17E"/>
<path d="M131.724 90.7225L131.459 90.1742C137.298 87.4328 137.618 80.8261 137.609 79.3091C137.608 79.214 137.636 79.1209 137.688 79.0412C137.74 78.9616 137.814 78.8991 137.901 78.8614C137.942 78.8428 137.987 78.8349 138.032 78.8384C138.076 78.8419 138.119 78.8566 138.157 78.8813C138.194 78.9059 138.225 78.9397 138.246 78.9793C138.266 79.019 138.277 79.0633 138.276 79.1081C138.267 80.8717 137.819 87.8257 131.724 90.7225Z" fill="#EFCBAC"/>
<path d="M131.459 90.1833L130.646 90.3113L131.112 91.2525L131.715 90.7316L131.459 90.1833Z" fill="#D8AA88"/>
<path d="M130.646 90.3021C130.646 90.3021 129.567 90.7956 129.284 90.5214C129.284 90.5214 129.403 91.4352 129.851 91.6637C130.297 91.617 130.727 91.4736 131.112 91.2433L130.646 90.3021Z" fill="#EFCBAC"/>
<path d="M163.78 95.3646C163.78 95.3646 163.597 97.8867 163.588 100.272C159.101 100.144 156.725 96.0408 155.748 93.7746L163.78 95.3646Z" fill="#EF9F68"/>
<path d="M154.085 94.0579C152.357 92.2303 150.932 90.1388 149.863 87.8623C149.022 85.724 148.492 77.2348 157.018 76.7597C158.737 76.6501 160.458 76.9312 162.053 77.5821C164.091 78.4319 167.225 80.5336 165.772 88.3192L165.507 90.9052L154.085 94.0579Z" fill="#132744"/>
<path d="M200.03 233.056C200.03 233.056 197.901 233.43 196.147 233.558C195.754 233.558 195.388 233.604 195.068 233.604C193.924 233.524 192.79 233.34 191.678 233.056H191.605L190.691 232.827H190.637C183.152 223.721 177.51 213.246 174.024 201.986C173.887 201.539 173.74 201.073 173.585 200.643C170.314 191.121 163.533 179.169 159.979 168.34C159.412 166.623 158.9 164.996 158.443 163.461C158.297 162.967 158.151 162.492 158.014 162.017C155.965 154.982 154.594 147.766 153.92 140.47L175.376 145.952C175.376 145.952 184.386 184.962 200.03 233.056Z" fill="#A63E39"/>
<path d="M165.178 96.6348C165.178 96.6348 154.788 98.901 153.472 92.413C152.157 85.9251 149.927 81.8495 156.506 80.1225C163.086 78.3954 164.877 80.6159 165.845 82.6719C166.814 84.728 167.837 95.8763 165.178 96.6348Z" fill="#FAB17E"/>
<path d="M161.221 79.0076C161.221 79.0076 159.906 87.2318 155.739 89.2056C151.572 91.1794 149.452 90.421 149.452 90.421C151.231 88.0887 152.145 85.2107 152.038 82.279C152.038 82.279 158.297 75.8185 161.221 79.0076Z" fill="#132744"/>
<path d="M160.636 79.766C160.636 79.766 163.113 81.0362 163.963 82.5897C164.813 84.1431 166.585 84.6823 166.704 87.1587C166.704 87.1587 167.81 81.5479 164.803 79.1081C161.614 76.5403 160.636 79.766 160.636 79.766Z" fill="#132744"/>
<path d="M155.483 239.206C155.666 240.898 155.479 242.61 154.934 244.222C154.934 244.222 154.222 247.466 157.411 247.521C160.6 247.576 161.395 247.283 161.066 245.291C160.737 243.299 160.015 239.863 160.015 239.863L155.483 239.206Z" fill="#FAB17E"/>
<path d="M154.935 244.222C154.622 245.764 154.541 247.344 154.697 248.91C155.698 249.47 156.843 249.721 157.987 249.632C159.145 249.687 160.298 249.438 161.331 248.91C161.331 248.91 161.404 245.556 160.81 244.14C160.81 244.14 158.544 247.539 154.935 244.222Z" fill="#C55546"/>
<path d="M208.556 245.62C208.556 245.62 202.662 239.078 200.853 235.751L196.476 237.999L206.262 247.192L208.556 246.891V245.62Z" fill="#FAB17E"/>
<path d="M212.211 249.449C212.211 249.449 205.879 249.449 204.8 249.33C203.722 249.212 202.836 247.64 201.666 245.291C201.369 244.825 200.979 244.426 200.52 244.119C200.06 243.812 199.542 243.605 198.998 243.51V248.992H197.316L195.763 243.162C194.721 241.252 195.681 239.507 196.421 237.999C197.271 237.999 199.564 238.584 203.923 243.482C204.47 244.165 205.166 244.712 205.959 245.083C206.751 245.454 207.618 245.638 208.492 245.62H208.556C212.211 247.284 212.211 249.449 212.211 249.449Z" fill="#C55546"/>
<path d="M196.147 233.577C195.754 233.577 195.388 233.622 195.068 233.622C193.924 233.542 192.789 233.359 191.678 233.074H191.605L190.691 232.845H190.637C183.15 223.734 177.508 213.253 174.024 201.987C173.887 201.539 173.74 201.073 173.585 200.643C170.314 191.121 163.533 179.169 159.979 168.34C159.412 166.623 158.9 164.996 158.443 163.461C158.297 162.967 158.151 162.492 158.014 162.017L161.806 159.129C161.806 159.129 173.201 177.579 176.729 194.941C179.653 209.297 192.236 227.984 196.147 233.577Z" fill="#923030"/>
<path d="M162.208 196.549C162.272 204.993 161.843 224.402 160.746 232.443C160.746 232.443 159.705 233.357 157.091 233.357C155.741 233.458 154.394 233.118 153.253 232.389C150.512 218.417 148.538 206.857 147.103 196.897C145.934 188.718 144.892 181.709 144.088 175.678C143.384 170.333 147.871 155.849 147.871 155.849L164.712 154.204C164.456 169.017 162.172 191.642 162.208 196.549Z" fill="#A63E39"/>
<path d="M157.118 233.375C155.77 233.452 154.431 233.114 153.281 232.407C150.539 218.435 148.565 206.875 147.131 196.915C145.961 188.736 144.919 181.728 144.115 175.697C143.412 170.351 147.898 155.867 147.898 155.867L153.61 159.522C153.61 159.522 145.504 166.888 147.496 180.814C149.488 194.74 154.35 231.402 157.118 233.375Z" fill="#923030"/>
<path d="M183.646 144.207C182.532 144.555 181.388 144.8 180.228 144.938C178.578 145.071 176.949 145.399 175.376 145.916C171.94 147.478 163.588 101.396 163.588 101.396C163.588 101.396 169.665 101.45 172.452 105.846C175.239 110.241 186.095 131.953 187.073 138.907C187.539 142.041 185.876 143.503 183.646 144.207Z" fill="#1C478A"/>
<path d="M196.147 206.354C195.596 207.555 194.892 208.679 194.054 209.699C193.136 210.872 192.111 211.958 190.993 212.943C187.584 215.958 182.147 219.23 173.74 220.847C173.302 220.939 172.827 221.021 172.379 221.094C169.848 221.514 167.417 221.816 165.068 222.008C160.897 222.378 156.705 222.466 152.522 222.273C150.055 222.163 147.88 221.953 146.061 221.734C143.885 221.488 141.728 221.104 139.601 220.582C139.601 220.582 139.601 178.941 143.037 154.213C144.937 140.506 151.307 101.578 151.307 101.578L154.477 101.094L162.071 118.008L163.551 101.387L167.006 102.492C167.841 102.76 168.593 103.236 169.193 103.875C169.793 104.515 170.219 105.297 170.432 106.147L196.147 206.354Z" fill="#1C478A"/>
<path d="M171.657 142.398L154.039 140.607L156.89 115.075L174.517 116.857L171.657 142.398Z" fill="#BE4040"/>
<path d="M156.89 115.075L155.766 114.984L153.107 140.497L154.039 140.607L156.89 115.075Z" fill="#9C2624"/>
<path d="M142.114 128.225C150.049 130.588 158.133 132.42 166.311 133.708C166.311 133.708 170.213 135.398 168.386 135.864C167.91 135.974 144.234 141.146 140.725 137.792L142.114 128.225Z" fill="#FAB17E"/>
<path d="M154.478 101.103C154.478 101.103 145.221 102.218 143.667 104.091C138.742 109.994 134.274 135.234 138.139 141.064C142.708 148.018 149.854 137.098 152.074 130.665C153.235 127.329 155.117 107.171 154.478 101.103Z" fill="#1C478A"/>
<path d="M165.151 133.525C165.151 133.525 166.604 133.397 166.878 132.931C167.426 132.017 168.303 132.017 169.025 131.889C169.747 131.761 170.57 130.975 170.716 131.131C170.862 131.286 170.186 132.163 169.802 132.492C170.243 132.516 170.684 132.451 171.1 132.3C171.611 132.054 173.43 129.979 173.439 130.875C173.439 133.013 173.293 133.36 171.456 134.877C169.948 136.12 164.822 136.586 164.822 136.586L165.151 133.525Z" fill="#FAB17E"/>
<path d="M154.459 127.676L154.094 131.332C153.403 131.181 152.728 130.97 152.074 130.701C147.003 128.663 149.004 118.575 149.004 118.575C149.839 122.099 151.745 125.278 154.459 127.676Z" fill="#243962"/>
<path d="M166.585 79.3457C166.585 79.3457 159.083 76.4947 148.656 85.0295L148.876 83.0831C148.967 82.2197 149.236 81.3844 149.665 80.6296C150.094 79.8748 150.675 79.2168 151.37 78.6969C153.717 77.0433 156.441 76.0063 159.293 75.6814C160.576 75.5013 161.884 75.6761 163.074 76.1868C164.265 76.6975 165.292 77.5245 166.046 78.5781L166.585 79.3457Z" fill="#1C478A"/>
<path d="M183.646 144.207C182.532 144.555 181.388 144.8 180.228 144.938L175.358 123.446C175.358 123.446 183.555 139.967 183.646 144.207Z" fill="#243962"/>
<path d="M161.45 93.0618C161.45 93.0618 161.934 93.9756 162.638 93.9756C163.524 93.9884 164.407 93.8745 165.26 93.6375C165.442 93.268 165.598 92.8864 165.727 92.4953C164.28 92.4572 162.837 92.6484 161.45 93.0618Z" fill="white"/>
<path d="M402.957 120.403C402.483 119.725 401.924 119.111 401.294 118.575C400.38 117.89 399.467 116.61 399.75 116.19C400.68 115.344 401.66 114.553 402.683 113.823L404.109 117.332L402.957 120.403Z" fill="#FAB17E"/>
<path d="M425.93 79.4462L449.113 70.2625L462.08 82.7633L440.039 91.353L425.93 79.4462Z" fill="#243962"/>
<path d="M413.247 128.974L404.017 117.095L402.921 120.375C402.921 120.375 412.379 141.868 416.71 139.867C418.73 138.934 413.247 128.974 413.247 128.974Z" fill="#FAB17E"/>
<path d="M442.132 90.3204C442.132 90.3204 437.636 92.9705 440.396 98.106C440.396 98.106 436.457 97.3841 435.598 96.2144C435.65 96.4675 435.733 96.7131 435.845 96.9455C435.845 96.9455 431.23 96.3606 430.362 94.6427C428.608 91.088 432.866 91.3073 434.712 87.6247C437.115 82.809 440.898 79.0259 446.235 81.6851C446.235 81.6851 453.692 81.2738 450.32 90.823C446.948 100.372 450.137 101.231 450.137 101.231C449.666 101.333 449.182 101.364 448.702 101.323C448.702 101.323 448.145 100.921 448.108 100.537C448.094 100.806 448.128 101.075 448.209 101.332C448.209 101.332 444.672 100.747 443.302 98.9924C441.931 97.2379 441.109 92.2029 442.132 90.3204Z" fill="#CA4D44"/>
<path d="M446.582 102.565C446.71 103.753 446.865 104.813 446.938 105.307C446.993 105.672 447.852 112.133 446.308 112.197C444.764 112.261 441.09 119.928 439.418 119.873C437.59 119.8 435.881 105.7 435.635 105.7C436.11 105.49 437.572 100.857 438.038 99.0838C438.595 96.9364 439.043 94.6245 439.043 94.6245L446.646 95.0996H447.103C446.839 96.0645 446.631 97.0439 446.482 98.0329L446.427 98.3984C446.332 99.789 446.384 101.186 446.582 102.565Z" fill="#FAB17E"/>
<path d="M437.993 93.8751C437.299 91.6362 436.966 89.3012 437.006 86.9577C437.179 84.8194 440.597 78.7335 447.971 81.8495C448.638 81.7688 449.314 81.8677 449.929 82.136C450.544 82.4043 451.077 82.8323 451.471 83.3756C452.833 84.9382 454.578 87.9446 450.164 93.8934L448.83 95.986L437.993 93.8751Z" fill="#CA4D44"/>
<path d="M446.582 102.565C441.255 101.003 438.998 94.8529 438.998 94.8529C441.246 94.926 444.179 96.4886 446.482 98.0786L446.427 98.4441C446.336 99.8195 446.388 101.201 446.582 102.565Z" fill="#EE985E"/>
<path d="M446.957 100.409C446.957 100.409 437.335 98.0237 438.906 92.0658C440.478 86.1078 440.305 81.7673 446.509 83.0374C452.714 84.3076 453.299 86.8937 453.262 89.0137C453.226 91.1337 449.497 100.866 446.957 100.409Z" fill="#FAB17E"/>
<path d="M450.904 84.0426C450.904 84.0426 446.436 90.3478 442.132 90.3204C437.828 90.293 436.375 88.7487 436.375 88.7487C438.813 87.5248 440.75 85.4935 441.858 83.0009C441.858 83.0009 449.799 80.1864 450.904 84.0426Z" fill="#CA4D44"/>
<path d="M450.11 84.4356C450.934 85.5341 451.488 86.8113 451.727 88.1639C451.8 89.8087 451.188 92.9979 452.129 93.1258C452.129 93.1258 455.364 88.8949 453.856 85.6144C452.257 82.1419 450.11 84.4356 450.11 84.4356Z" fill="#CA4D44"/>
<path d="M450.411 84.7737C450.411 84.7737 446.601 91.6089 440.898 92.6049C440.898 92.6049 447.167 89.4523 448.885 84.728C450.603 80.0036 450.411 84.7737 450.411 84.7737Z" fill="#CA4D44"/>
<path d="M445.458 96.5799C445.458 96.5799 445.577 97.4937 446.153 97.7039C446.884 97.9761 447.65 98.1453 448.428 98.2065C448.691 97.9569 448.936 97.6882 449.159 97.4023C447.976 96.9351 446.727 96.6576 445.458 96.5799Z" fill="white"/>
<path d="M441.867 187.85C441.739 188.362 441.62 188.864 441.502 189.367C440.771 192.373 440.104 195.17 439.674 197.509C439.126 200.552 438.989 202.818 439.72 203.768C441.547 206.227 441.109 219.358 440.497 228.807C440.131 234.436 439.72 238.758 439.72 238.758L436.32 242.267C436.32 242.267 435.242 236.674 433.881 229.903C432.053 220.765 429.723 209.525 428.809 206.775C428.078 204.591 426.981 195.252 426.068 185.758L425.931 184.332C425.766 182.66 425.611 181.006 425.455 179.379C424.974 173.549 425.103 167.684 425.839 161.88C428.774 159.612 432.271 158.184 435.955 157.75C439.309 157.457 442.461 158.526 444.024 162.648C446.299 168.606 443.996 178.959 441.867 187.85Z" fill="#FAB17E"/>
<path d="M441.867 187.85C437.207 184.487 430.655 178.502 428.279 168.66C427.822 163.781 431.669 159.148 435.964 157.695C439.318 157.402 442.47 158.471 444.033 162.593C446.299 168.605 443.996 178.959 441.867 187.85Z" fill="#EE985E"/>
<path d="M458.846 128.59L481.782 134.503V137.171C481.782 137.171 458.937 136.906 457.493 134.365C456.049 131.825 458.846 128.59 458.846 128.59Z" fill="#FAB17E"/>
<path d="M481.782 216.68L480.713 221.094C480.713 221.094 475.979 218.654 469.985 215.492C460.627 210.567 448.181 203.906 445.742 202.032C444.133 200.799 442.013 194.1 440.039 186.498C437.106 175.203 434.557 161.953 434.557 161.953C434.557 161.953 438.897 145.258 450.512 155.474C457.466 161.588 456.387 173.366 455.62 182.532C455.117 188.682 454.752 193.644 457.054 194.932C460.371 196.76 468.395 203.531 474.06 210.138C475.924 212.231 477.557 214.52 478.931 216.964L481.782 216.68Z" fill="#FAB17E"/>
<path d="M481.782 134.503C481.782 134.503 485.976 132.428 487.648 132.227C489.321 132.026 492.126 131.962 492.126 132.227C491.004 133.209 489.713 133.98 488.315 134.503C487.52 134.63 485.976 135.773 486.488 135.901C487 136.029 489.421 135.471 489.458 135.901C489.494 136.33 487.95 136.604 487.685 136.942C487.42 137.281 486.488 137.673 484.943 137.472C483.399 137.271 481.782 137.171 481.782 137.171V134.503Z" fill="#FAB17E"/>
<path d="M481.782 197.418C467.006 218.7 428.873 221.085 428.873 221.085C422.677 198.487 425.218 141.356 426.634 120.119C426.543 116.409 426.689 113.275 427.301 112.069C428.215 110.186 433.405 106.924 435.251 105.307C435.506 105.206 435.774 105.138 436.046 105.106C436.33 106.083 439.765 117.743 440.104 117.497C440.442 117.25 446.235 106.175 446.847 104.868H448.017C449.04 104.914 454.56 106.019 455.017 106.906C455.181 107.217 456.762 111.411 458.754 116.958C462.482 127.375 467.956 125.419 470.122 128.508C471.492 130.445 470.908 134.064 468.367 137.189C468.157 137.454 467.929 137.71 467.682 137.966C465.754 140.004 463.113 141.21 458.891 140.588C457.055 140.094 455.361 139.174 453.948 137.902C458.087 153.701 481.782 197.418 481.782 197.418Z" fill="#1C478A"/>
<path d="M436.256 104.576L434.264 105.718C434.264 105.718 439.747 121.17 440.003 121.106C440.259 121.042 448.474 104.969 448.474 104.969L446.801 104.274L440.067 117.506L436.256 104.576Z" fill="#F89748"/>
<path d="M453.299 84.6457C453.299 84.6457 446.29 80.7164 434.721 87.6247L435.224 85.724C435.44 84.8844 435.829 84.0991 436.366 83.4179C436.902 82.7367 437.574 82.1746 438.34 81.7673C440.902 80.4726 443.75 79.8441 446.619 79.9397C447.915 79.9505 449.183 80.3166 450.285 80.9982C451.387 81.6797 452.281 82.6506 452.869 83.8051L453.299 84.6457Z" fill="#1C478A"/>
<path d="M418.392 89.6807L418.218 89.0959C424.423 87.2683 425.757 80.8169 425.985 79.3183C426 79.224 426.041 79.1358 426.104 79.0645C426.167 78.9931 426.25 78.9416 426.342 78.9162C426.386 78.9042 426.432 78.9038 426.476 78.9148C426.52 78.9258 426.56 78.948 426.593 78.9792C426.626 79.0104 426.651 79.0496 426.664 79.093C426.678 79.1363 426.68 79.1824 426.671 79.2269C426.387 80.9631 424.861 87.7618 418.392 89.6807Z" fill="#EFCBAC"/>
<path d="M418.218 89.1051H417.396L417.706 90.1011L418.392 89.6808L418.218 89.1051Z" fill="#D8AA88"/>
<path d="M417.395 89.0959C417.395 89.0959 416.253 89.4157 416.016 89.0959C416.016 89.0959 416.016 90.0645 416.399 90.3204C416.849 90.3412 417.297 90.2664 417.715 90.1011L417.395 89.0959Z" fill="#EFCBAC"/>
<path d="M436.667 105.965C436.667 105.965 438.495 109.327 445.805 106.266L440.085 117.506L436.667 105.965Z" fill="white"/>
<path d="M434.264 105.718C434.264 105.718 433.351 137.701 425.428 143.906C424.906 144.328 424.302 144.639 423.655 144.819C419.662 145.834 416.765 143.458 414.81 140.168C412.068 135.599 411.154 129.257 411.62 127.804C412.534 125.017 414.526 129.934 418.785 128.59C423.043 127.247 424.194 110.095 427.164 107.573C427.932 106.952 434.264 105.718 434.264 105.718Z" fill="#1C478A"/>
<path d="M395.757 128.481C394.95 128.039 394.172 127.548 393.427 127.009C392.923 126.65 392.455 126.243 392.029 125.794C391.833 125.588 391.67 125.354 391.544 125.1C391.544 125.1 401.176 113.503 401.943 112.142C402.711 110.78 409.975 99.5315 409.975 99.5315C410.648 99.8625 411.301 100.232 411.931 100.637C412.355 100.92 412.763 101.225 413.156 101.551C413.914 102.12 414.559 102.827 415.056 103.634C415.056 103.634 404.474 114.353 403.725 115.907C402.976 117.46 395.757 128.481 395.757 128.481Z" fill="#EFCBAC"/>
<path d="M393.427 127.055C392.923 126.695 392.455 126.288 392.029 125.84C391.833 125.634 391.67 125.4 391.544 125.145C391.544 125.145 401.176 113.549 401.943 112.188C402.711 110.826 409.975 99.5772 409.975 99.5772C410.648 99.9082 411.301 100.277 411.931 100.683C412.355 100.966 412.763 101.271 413.156 101.597C410.186 104.631 402.19 112.891 401.486 114.308C400.783 115.724 395.592 123.692 393.427 127.055Z" fill="#DDB18F"/>
<path d="M403.341 109.876C403.341 109.876 400.499 112.617 400.17 114.518L403.149 116.903C404.495 115.597 405.646 114.104 406.567 112.471L403.341 109.876Z" fill="#CA4D44"/>
<path d="M404.054 117.122C404.054 117.122 404.264 115.249 403.826 114.591C403.387 113.933 403.36 112.115 402.912 112.316C402.464 112.517 402.775 113.988 402.519 114.71C402.263 115.432 401.888 118.767 402.912 119.407C403.935 120.046 404.054 117.122 404.054 117.122Z" fill="#FAB17E"/>
<path d="M401.175 112.434C401.175 112.434 399.997 112.252 399.558 113.037C399.119 113.823 398.644 115.103 399.412 115.605C400.179 116.108 401.175 112.434 401.175 112.434Z" fill="#FAB17E"/>
<path d="M440.496 228.807C440.131 234.436 439.719 238.758 439.719 238.758L436.32 242.267C436.32 242.267 435.242 236.674 433.88 229.903C433.88 229.903 437.691 231.228 440.496 228.807Z" fill="white"/>
<path d="M443.137 243.82L441.31 244.816C440.643 245.045 440.094 245.118 439.418 245.374C438.695 245.624 438.061 246.077 437.591 246.68C437.07 248.782 436.339 248.645 436.339 248.645L428.973 248.718C428.626 248.545 429.211 247.055 429.494 246.781C430.189 246.096 432.236 246.434 433.04 244.277C433.469 243.071 435.58 239.297 435.58 239.297C435.644 239.297 436.037 239.178 438.166 239.626C439.272 239.845 439.729 237.616 439.729 237.616C439.992 237.684 440.24 237.802 440.46 237.963C440.842 238.235 441.127 238.623 441.273 239.068C441.811 240.056 442.53 240.934 443.393 241.655C443.868 242.093 444.225 242.386 444.225 242.386C444.225 242.386 444.599 242.769 443.137 243.82Z" fill="#243962"/>
<path d="M481.782 216.68L480.713 221.094C480.713 221.094 475.979 218.654 469.985 215.492C471.904 214.229 473.333 212.345 474.033 210.156C475.897 212.25 477.53 214.538 478.903 216.982L481.782 216.68Z" fill="white"/>
<path d="M487.859 218.435C487.712 218.435 487.082 218.197 486.661 217.183C486.378 216.516 486.296 215.968 486.04 215.31L484.998 213.482C483.902 212.047 483.518 212.386 483.518 212.386C483.518 212.386 483.235 212.751 482.814 213.235C482.117 214.12 481.258 214.864 480.283 215.429C479.842 215.59 479.465 215.887 479.205 216.278C479.048 216.5 478.94 216.752 478.885 217.019C478.885 217.019 481.124 217.411 480.932 218.517C480.548 220.655 480.639 221.048 480.676 221.112C480.676 221.112 484.505 223.114 485.729 223.506C487.296 224.093 488.682 225.079 489.75 226.367C489.89 226.502 490.059 226.603 490.245 226.662C490.43 226.721 490.627 226.735 490.819 226.705C491.395 226.613 492.144 226.431 492.309 226.074L487.859 218.435Z" fill="#243962"/>
<path d="M438.55 127.375C438.55 127.156 438.615 126.942 438.736 126.761C438.858 126.579 439.031 126.437 439.233 126.353C439.435 126.27 439.657 126.248 439.871 126.29C440.086 126.333 440.283 126.438 440.438 126.593C440.592 126.748 440.698 126.945 440.74 127.159C440.783 127.374 440.761 127.596 440.677 127.798C440.594 128 440.452 128.173 440.27 128.294C440.088 128.416 439.874 128.481 439.656 128.481C439.511 128.481 439.367 128.452 439.233 128.396C439.098 128.341 438.977 128.259 438.874 128.157C438.771 128.054 438.69 127.932 438.634 127.798C438.579 127.664 438.55 127.52 438.55 127.375Z" fill="#243962"/>
<path d="M438.55 135.59C438.55 135.371 438.615 135.158 438.736 134.976C438.858 134.794 439.031 134.652 439.233 134.568C439.435 134.485 439.657 134.463 439.871 134.506C440.086 134.548 440.283 134.654 440.438 134.808C440.592 134.963 440.698 135.16 440.74 135.374C440.783 135.589 440.761 135.811 440.677 136.013C440.594 136.215 440.452 136.388 440.27 136.509C440.088 136.631 439.874 136.696 439.656 136.696C439.511 136.696 439.367 136.667 439.233 136.612C439.098 136.556 438.977 136.475 438.874 136.372C438.771 136.269 438.69 136.147 438.634 136.013C438.579 135.879 438.55 135.735 438.55 135.59Z" fill="#243962"/>
<path d="M468.322 137.271C468.111 137.536 467.883 137.792 467.636 138.048C465.708 140.086 463.067 141.292 458.845 140.671C457.009 140.176 455.315 139.256 453.902 137.984C453.902 137.984 450.393 128.398 450.868 127.019C451.343 125.639 458.096 136.157 463.707 136.659C465.255 136.777 466.796 136.981 468.322 137.271Z" fill="#243962"/>
<path d="M427.091 129.797L425.419 143.887C424.896 144.31 424.293 144.621 423.646 144.801C419.653 145.815 416.756 143.439 414.8 140.15C416.838 140.433 421.8 140.881 422.878 138.715C424.212 136.001 427.091 129.797 427.091 129.797Z" fill="#243962"/>
<path d="M330.32 53.0375C331.307 52.1683 332.141 51.1397 332.787 49.9945C333.174 48.4484 333.319 46.8516 333.216 45.2611C333.139 45.2313 333.056 45.2195 332.974 45.2264C332.891 45.2334 332.811 45.2589 332.74 45.3011C332.669 45.3433 332.608 45.4011 332.562 45.4701C332.517 45.5391 332.487 45.6176 332.476 45.6997C332.33 46.3485 332.056 47.8562 331.508 48.1669C330.959 48.4776 329.726 48.4319 329.433 49.9945C329.338 51.084 329.654 52.1695 330.32 53.0375Z" fill="#B67041"/>
<path d="M325.778 53.3755C325.778 53.3755 323.95 49.7203 324.334 48.4776C324.718 47.2348 330.246 45.9555 330.978 46.5221C331.709 47.0886 330.978 53.9969 330.978 53.9969L325.778 53.3755Z" fill="#B67041"/>
<path d="M384.17 164.768C384.17 164.768 383.905 167.82 384.965 169.282C386.025 170.744 386.601 172.069 386.957 171.402C387.313 170.735 386.381 168.441 386.692 168.487C387.003 168.532 387.862 171.228 388.291 172.069C388.721 172.909 389.653 174.234 390.274 173.577C390.895 172.919 389.698 166.632 389.214 165.837C388.73 165.042 387.706 163.269 387.706 163.269L384.17 164.768Z" fill="#B67041"/>
<path d="M346.01 72.7572L367.137 60.8778L381.328 78.4593L361.983 87.844L346.01 72.7572Z" fill="#243962"/>
<path d="M354.883 78.3588C354.65 79.3896 354.053 80.3016 353.201 80.9266C351.968 81.6028 353.914 83.4212 353.421 84.7645C352.927 86.1078 354.901 87.844 354.901 87.844L368.544 89.4157C369.155 89.1146 369.676 88.6596 370.057 88.0956C370.439 87.5316 370.667 86.878 370.719 86.1992C370.902 83.8599 371.112 80.9266 371.112 80.9266L365.145 76.3576L356.591 76.7962L354.883 78.3588Z" fill="#CA4D44"/>
<path d="M309.074 55.6144C308.655 54.6043 308.298 53.5698 308.005 52.5166C307.798 51.807 307.663 51.0784 307.603 50.3417C307.575 50.0053 307.597 49.6668 307.667 49.3366C307.667 49.3366 325.248 45.6814 326.975 45.0052C328.702 44.3289 343.798 39.2299 343.798 39.2299C344.184 40.0402 344.52 40.8733 344.804 41.7246C344.977 42.2546 345.151 42.8486 345.288 43.4517C345.565 44.547 345.636 45.6841 345.498 46.8053C345.498 46.8053 327.679 48.9162 325.833 49.8026C323.987 50.689 309.074 55.6144 309.074 55.6144Z" fill="#EFCBAC"/>
<path d="M307.977 52.5166C307.77 51.807 307.636 51.0784 307.575 50.3417C307.548 50.0053 307.569 49.6668 307.639 49.3366C307.639 49.3366 325.221 45.6814 326.948 45.0052C328.675 44.3289 343.798 39.2299 343.798 39.2299C344.184 40.0402 344.52 40.8733 344.803 41.7246C344.977 42.2546 345.151 42.8486 345.288 43.4517C340.271 44.0731 326.655 45.8002 324.965 46.6134C323.274 47.4267 312.464 51.0271 307.977 52.5166Z" fill="#DDB18F"/>
<path d="M329.936 43.8995C329.936 43.8995 325.239 44.3564 323.539 45.8642L324.535 50.287C324.535 50.287 328.848 49.8483 331.014 48.7061L329.936 43.8995Z" fill="#CA4D44"/>
<path d="M334.203 248.718C334.182 247.451 334.317 246.187 334.605 244.953C335.008 244.039 336.479 240.192 336.479 240.192H342.245C342.73 241.706 343.112 243.251 343.387 244.816C343.46 245.958 343.387 248.718 343.387 248.718H334.203Z" fill="#243962"/>
<path d="M370.828 248.718C370.85 247.451 370.715 246.187 370.426 244.953C370.024 244.039 368.544 240.192 368.544 240.192H362.778C362.297 241.707 361.915 243.252 361.636 244.816C361.572 245.958 361.636 248.718 361.636 248.718H370.828Z" fill="#243962"/>
<path d="M356.4 89.7356C356.4 89.7356 355.239 95.922 354.015 98.5812L347.042 102.008L356.802 121.298L370.198 109.2L365.729 100.555C365.729 100.555 365.309 91.9653 366.643 89.0137C367.977 86.0622 356.4 89.7356 356.4 89.7356Z" fill="#B67041"/>
<path d="M356.235 90.5945C356.235 90.5945 357.414 95.392 360.959 95.8306C364.505 96.2692 365.921 92.413 365.921 92.413L356.235 90.5945Z" fill="#995A2D"/>
<path d="M360.822 94.0305C358.273 93.5918 354.088 89.4615 354.736 85.2397L355.751 78.6604C355.804 77.966 356.13 77.3209 356.658 76.8656C357.185 76.4104 357.87 76.1818 358.565 76.2297L368.325 77.71C369.001 77.8771 369.585 78.3028 369.95 78.8958C370.316 79.4888 370.434 80.2016 370.28 80.8809L369.321 87.0856C368.644 91.5267 363.746 94.5331 360.822 94.0305Z" fill="#B67041"/>
<path d="M334.925 150.914C334.925 150.147 335.931 181.508 334.423 199.346C332.933 216.936 334.423 241.38 334.423 241.38C335.987 242.147 337.706 242.546 339.449 242.546C341.191 242.546 342.91 242.147 344.475 241.38C344.475 241.38 350.213 207.405 350.177 199.346C350.177 190.738 356.418 152.285 356.418 152.285L334.925 150.914Z" fill="#F89748"/>
<path d="M370.618 241.38C369.054 242.147 367.334 242.545 365.592 242.545C363.85 242.545 362.131 242.147 360.566 241.38C360.566 241.38 354.837 207.405 354.873 199.346C354.873 195.69 353.777 186.744 352.488 177.616C350.716 165.115 348.623 152.285 348.623 152.285L370.975 150.887C370.975 150.887 369.147 181.764 370.636 199.318C372.126 216.872 370.618 241.38 370.618 241.38Z" fill="#F89748"/>
<path d="M358.73 85.6875C357.77 85.5413 355.897 85.0387 355.824 83.3299C355.801 83.0995 355.832 82.8671 355.913 82.6502C355.993 82.4333 356.122 82.2376 356.29 82.078C356.496 81.9112 356.736 81.7913 356.993 81.7266C357.251 81.6619 357.519 81.6539 357.779 81.7033L360.703 82.1511C360.925 82.1616 361.141 82.2273 361.331 82.3422C361.52 82.4571 361.679 82.6175 361.791 82.809C361.867 83.0868 361.879 83.3781 361.827 83.6612C361.774 83.9444 361.659 84.2121 361.489 84.4447C360.859 85.4681 360.155 85.8794 359.269 85.7423C359.088 85.7356 358.908 85.7173 358.73 85.6875ZM357.752 81.8952C357.52 81.8495 357.282 81.8553 357.053 81.9121C356.824 81.969 356.61 82.0755 356.427 82.2242C356.28 82.364 356.167 82.5354 356.095 82.7253C356.024 82.9152 355.997 83.1188 356.016 83.3207C356.053 83.7711 356.232 84.198 356.528 84.5397C356.823 84.8814 357.22 85.1202 357.661 85.2214C358.181 85.4091 358.726 85.5199 359.278 85.5504C360.091 85.6783 360.731 85.2945 361.316 84.3442C361.444 84.134 361.846 83.4304 361.608 82.8913C361.511 82.7342 361.377 82.6031 361.218 82.5091C361.058 82.4152 360.879 82.3613 360.694 82.3521L357.752 81.8952Z" fill="#2E3B65"/>
<path d="M365.483 86.7292C365.304 86.7017 365.127 86.6651 364.953 86.6195C364.039 86.4825 363.509 85.8794 363.226 84.7189C363.131 84.446 363.1 84.1553 363.135 83.8687C363.17 83.5821 363.27 83.3072 363.427 83.0649C363.588 82.9139 363.785 82.8069 363.999 82.7541C364.214 82.7013 364.438 82.7044 364.651 82.7633L367.557 83.1928C367.821 83.2252 368.074 83.3147 368.3 83.4552C368.526 83.5956 368.718 83.7837 368.864 84.0061C368.975 84.207 369.04 84.4306 369.053 84.6602C369.065 84.8897 369.026 85.1191 368.937 85.3311C368.379 86.9576 366.433 86.848 365.483 86.7292ZM364.624 82.9552C364.443 82.9028 364.251 82.8971 364.068 82.9386C363.884 82.9802 363.714 83.0676 363.573 83.1928C363.189 83.6132 363.354 84.4264 363.408 84.6732C363.682 85.7423 364.176 86.3089 364.989 86.4277C365.522 86.5683 366.074 86.6268 366.625 86.6013C367.076 86.6389 367.528 86.5315 367.914 86.2949C368.3 86.0582 368.601 85.7046 368.772 85.2854C368.851 85.0984 368.887 84.8959 368.876 84.6932C368.864 84.4905 368.807 84.293 368.708 84.1157C368.578 83.9197 368.407 83.7543 368.207 83.6312C368.006 83.5081 367.781 83.4303 367.548 83.403L364.624 82.9552Z" fill="#2E3B65"/>
<path d="M361.425 83.6497C361.403 83.6462 361.382 83.6367 361.364 83.6223C361.346 83.6078 361.333 83.5889 361.325 83.5675C361.321 83.5374 361.326 83.5068 361.341 83.4803C361.356 83.4538 361.379 83.4331 361.407 83.4212C361.781 83.324 362.172 83.3047 362.553 83.3644C362.935 83.4241 363.301 83.5617 363.628 83.7685C363.647 83.7915 363.658 83.8206 363.658 83.8507C363.658 83.8808 363.647 83.9099 363.628 83.933C363.606 83.9542 363.576 83.966 363.545 83.966C363.515 83.966 363.485 83.9542 363.463 83.933C363.166 83.75 362.834 83.629 362.489 83.5772C362.143 83.5253 361.791 83.5438 361.453 83.6314L361.425 83.6497Z" fill="#2E3B65"/>
<path d="M358.839 101.999L352.242 99.1386C352.242 99.1386 348.824 126.278 353.384 127.96C353.384 127.96 366.387 104.868 365.501 101.907L358.839 101.999Z" fill="white"/>
<path d="M354.663 97.4115C353.631 97.5905 352.658 98.0204 351.831 98.6634C351.831 98.6634 353.247 103.232 357.012 104.63L358.62 101.999C356.754 101.044 355.334 99.3979 354.663 97.4115Z" fill="#D3E1F4"/>
<path d="M358.62 101.999C358.62 101.999 364.77 101.761 365.693 98.7914C366.483 99.7307 366.902 100.927 366.871 102.154C366.871 102.154 364.925 105.124 360.064 105.124L358.62 101.999Z" fill="#D3E1F4"/>
<path d="M359.132 89.4158C360.726 89.472 362.309 89.7143 363.847 90.1377C363.565 90.4688 363.211 90.7303 362.812 90.9015C362.412 91.0727 361.978 91.1491 361.544 91.1246C360.247 90.9235 359.333 90.293 359.132 89.4158Z" fill="#FFF0E7"/>
<path d="M335.958 79.7752C332.997 81.6028 328.94 84.1797 325.632 86.1718C325.483 85.6767 325.364 85.1732 325.276 84.664C324.179 77.6643 325.778 53.3664 325.778 53.3664C326.482 53.0247 327.239 52.8053 328.017 52.7176C328.58 52.6288 329.157 52.701 329.681 52.9257C330.204 53.1504 330.654 53.5186 330.978 53.9878C330.978 53.9878 334.733 75.3707 335.958 79.7752Z" fill="#B67041"/>
<path d="M388.574 164.283L386.336 165.197C385.505 165.521 384.618 165.673 383.727 165.642C382.836 165.612 381.961 165.401 381.155 165.021C380.348 164.642 379.628 164.102 379.037 163.434C378.446 162.767 377.998 161.986 377.718 161.14C376.147 156.269 375.982 151.015 375.397 146.702C375.114 144.573 374.776 140.195 373.488 136.787L375.736 212.312C341.971 214.697 325.522 195.325 325.522 195.325C324.654 174.883 332.833 128.81 335.803 112.846C334.359 109.602 324.17 100.29 322.461 91.1428C321.666 86.9028 324.152 83.8964 327.158 81.8678C329.751 80.2253 332.598 79.0241 335.583 78.3131L346.54 92.8699C346.886 93.2353 347.192 93.6366 347.453 94.067C348.294 95.7758 352.662 98.636 352.662 98.636C352.662 98.636 353.128 123.19 354.015 123.976C355.303 123.482 363.893 106.275 365.793 100.537C368.803 101.37 371.748 102.423 374.602 103.689C374.602 103.689 380.496 106.833 381.337 120.558C382.041 132.2 389.159 147.058 390.768 160.555C390.857 161.33 390.691 162.114 390.295 162.786C389.9 163.459 389.295 163.984 388.574 164.283Z" fill="#1C478A"/>
<path d="M351.392 97.8136C351.392 97.8136 352.187 121.572 353.219 127.466L368.352 101.332L366.259 100.555L354.307 122.221L353.128 98.6543L351.392 97.8136Z" fill="#CA4D44"/>
<path d="M354.663 96.8998C353.631 97.0787 352.658 97.5086 351.831 98.1517C351.831 98.1517 353.247 102.721 357.012 104.119L358.62 102.044C356.79 100.791 355.405 98.9898 354.663 96.8998Z" fill="white"/>
<path d="M358.62 101.999C358.62 101.999 364.77 101.195 365.693 98.2339C366.483 99.1732 366.902 100.369 366.871 101.597C366.871 101.597 364.925 104.539 360.064 104.567L358.62 101.999Z" fill="white"/>
<path d="M350.716 131.085C351.331 131.085 351.83 130.586 351.83 129.97C351.83 129.354 351.331 128.855 350.716 128.855C350.1 128.855 349.601 129.354 349.601 129.97C349.601 130.586 350.1 131.085 350.716 131.085Z" fill="#243962"/>
<path d="M347.499 140.031C347.499 139.811 347.564 139.595 347.687 139.412C347.809 139.228 347.984 139.085 348.187 139.001C348.391 138.917 348.615 138.895 348.831 138.938C349.048 138.981 349.246 139.087 349.402 139.243C349.558 139.399 349.664 139.597 349.707 139.814C349.75 140.03 349.728 140.254 349.644 140.458C349.559 140.661 349.417 140.835 349.233 140.958C349.05 141.08 348.834 141.146 348.614 141.146C348.318 141.146 348.035 141.028 347.826 140.819C347.616 140.61 347.499 140.327 347.499 140.031Z" fill="#243962"/>
<path d="M347.545 83.8873L347.91 83.54C344.173 79.5924 345.909 74.3381 346.375 73.1502C346.406 73.0764 346.414 72.9949 346.398 72.9165C346.382 72.8382 346.342 72.7666 346.284 72.7115C346.257 72.6847 346.223 72.6651 346.187 72.6545C346.15 72.6439 346.111 72.6426 346.074 72.6508C346.037 72.6589 346.002 72.6763 345.973 72.7013C345.945 72.7263 345.922 72.7581 345.909 72.7938C345.388 74.1827 343.643 79.7752 347.545 83.8873Z" fill="#EFCBAC"/>
<path d="M347.91 83.5401L348.513 83.8873L347.855 84.4813L347.536 83.8965L347.91 83.5401Z" fill="#D8AA88"/>
<path d="M348.514 83.8873C348.514 83.8873 349.208 84.591 349.519 84.463C349.519 84.463 349.135 85.1758 348.733 85.1941C348.396 85.0217 348.099 84.7786 347.865 84.4813L348.514 83.8873Z" fill="#EFCBAC"/>
<path d="M355.23 79.7843C355.23 79.7843 357.843 79.9671 358.62 78.633C358.62 78.633 360.749 79.1721 361.69 78.368C361.69 78.368 364.971 79.035 365.062 77.71C365.062 77.71 367.566 82.7268 370.317 81.6759C373.067 80.6251 365.921 75.5443 365.921 75.5443L356.591 76.7962L355.23 79.7843Z" fill="#CA4D44"/>
<path d="M355.422 76.0286L354.883 78.3588C354.883 78.3588 362.193 75.7636 371.112 80.9265L371.002 77.1708C370.993 76.8086 370.907 76.4524 370.75 76.1262C370.592 75.7999 370.367 75.5112 370.088 75.2793C368.48 73.9543 364.605 71.3408 357.478 73.4517C356.957 73.6901 356.5 74.0476 356.143 74.4952C355.786 74.9428 355.539 75.468 355.422 76.0286Z" fill="#1C478A"/>
<path d="M323.493 47.2623C323.347 46.9292 323.283 46.5655 323.309 46.2024C323.334 45.8394 323.448 45.488 323.64 45.1788C324.298 44.265 328.629 42.8212 329.031 43.5797C329.433 44.3381 329.177 46.9516 327.788 47.5273C326.399 48.103 323.594 47.8471 323.493 47.2623Z" fill="#B67041"/>
<path d="M335.821 112.846C334.377 109.602 324.188 100.29 322.479 91.1429C321.684 86.9028 324.17 83.8964 327.176 81.8678C326.454 86.1222 327.382 90.4919 329.772 94.0853C333.747 99.8788 335.821 112.846 335.821 112.846Z" fill="#243962"/>
<path d="M386.29 165.206C385.46 165.53 384.572 165.682 383.681 165.652C382.791 165.621 381.915 165.41 381.109 165.03C380.303 164.651 379.582 164.111 378.991 163.443C378.4 162.776 377.952 161.995 377.673 161.149C376.101 156.278 375.937 151.024 375.352 146.711C375.068 144.582 374.73 140.205 373.442 136.796C376.5 141.931 379.008 147.374 380.926 153.034C384.471 163.114 383.366 164.585 386.29 165.206Z" fill="#243962"/>
<path d="M523.104 248.59H504.097C503.073 247.722 504.8 245.767 506.601 245.63C507.577 245.62 508.551 245.737 509.497 245.977C509.762 242.495 511.252 226.878 516.89 227.509C523.213 228.213 516.89 234.39 515.062 238.045C513.795 240.793 512.672 243.605 511.7 246.47C512.211 246.58 512.741 246.69 513.29 246.79C514.121 244.213 517.246 235.541 521.221 236.053C525.882 236.638 523.963 240.119 520.701 242.175C518.279 243.692 515.3 245.831 513.884 246.891C515.111 247.107 516.356 247.208 517.603 247.192C520.902 247.073 522.491 248.033 523.104 248.59Z" fill="#82B379"/>
<path d="M40.9016 248.59C40.9016 248.59 32.1383 224.512 25.9793 226.568C19.8203 228.624 40.9016 248.59 40.9016 248.59Z" fill="#82B379"/>
<path d="M37.5481 248.59C36.7988 248.59 22.8085 234.07 21.8764 237.871C20.9444 241.673 37.5481 248.59 37.5481 248.59Z" fill="#82B379"/>
<path d="M52.4703 248.59C52.4703 248.59 46.6859 243.281 39.3573 244.661C32.0286 246.041 28.9034 247.558 24.307 246.489C23.0703 246.142 21.7608 246.153 20.5301 246.52C19.2994 246.887 18.1979 247.596 17.353 248.563L52.4703 248.59Z" fill="#82B379"/>
<path d="M254.164 188.572C255.516 186.452 244.112 163.077 250.253 150.065C251.011 148.438 265.175 150.86 265.175 150.86C265.175 150.86 268.072 183.756 266.445 192.428C265.303 198.578 263.046 216.708 261.821 226.824V226.924C261.529 229.327 261.301 231.274 261.154 232.48C261.039 233.406 261.149 234.347 261.474 235.221C262.388 237.689 264.334 242.815 265.312 243.519C265.312 243.519 259.957 245.054 258.915 244.432C257.874 243.811 255.26 234.381 255.26 234.381C255.714 233.504 255.877 232.505 255.726 231.53C255.525 230.241 255.215 228.222 254.867 225.736C250.253 207.012 250.947 193.616 254.164 188.572Z" fill="#FAB17E"/>
<path d="M223.89 230.515C224.626 229.853 225.132 228.972 225.334 228.002C225.599 226.732 226.019 224.731 226.576 222.291C228.861 203.156 234.243 190.866 239.041 187.283C241.051 185.785 238.675 159.87 248.983 149.873C250.271 148.63 262.69 155.904 262.69 155.904C262.69 155.904 253.789 187.676 249.193 195.197C245.949 200.543 237.432 216.708 232.744 225.745C231.593 227.929 230.679 229.702 230.113 230.789C229.684 231.604 229.455 232.51 229.446 233.43C229.446 236.062 229.062 243.117 230.104 243.738C230.703 244.089 231.263 244.503 231.776 244.972C231.776 244.972 226.887 244.551 226.293 244.515C225.699 244.478 221.952 232.754 221.879 232.535C222.574 231.749 223.332 231.009 223.89 230.515Z" fill="#FAB17E"/>
<path d="M219.394 236.884L218.169 244.076L218.818 244.56L222.665 239.004L219.394 236.884Z" fill="#243962"/>
<path d="M219.522 237.433C223.716 239.626 224.337 246.973 225.004 248.554H232.68C233.832 248.161 233.384 246.525 231.712 244.99C231.712 244.99 226.823 244.569 226.229 244.533C225.635 244.496 221.888 232.772 221.815 232.553C220.061 234.481 218.352 236.811 219.522 237.433Z" fill="#1C478A"/>
<path d="M226.238 213.107C226.576 222.291 244.843 220.518 244.843 220.518L247.265 208.84L248.864 201.091L249.394 198.523L248.59 198.139L236.966 192.657L233.311 190.93L233.165 191.386L226.896 211.015L226.238 213.107Z" fill="#F89748"/>
<path d="M226.914 210.987C232.187 205.559 247.265 208.84 247.265 208.84L248.864 201.091L248.59 198.139L236.966 192.657L233.229 191.35L226.96 210.978L226.914 210.987Z" fill="#EE7E29"/>
<path d="M253.881 241.7L254.877 248.554H255.991L256.512 243.235L253.881 241.7Z" fill="#243962"/>
<path d="M253.881 241.691C256.211 242.769 258.76 247.311 259.948 248.554L269.625 248.618C270.841 247.631 266.601 244.423 265.303 243.482C265.303 243.482 259.948 245.017 258.906 244.396C257.865 243.775 255.251 234.344 255.251 234.344C254.127 236.583 252.163 240.905 253.881 241.691Z" fill="#1C478A"/>
<path d="M249.394 195.133L251.797 221.514C256.266 227.171 268.054 223.689 268.054 223.689C268.054 223.689 268.967 201.904 269.415 201.045L267.697 200.543L249.394 195.133Z" fill="#F89748"/>
<path d="M249.394 195.133L251.797 221.514C251.925 208.529 268.711 209.836 268.711 209.836L267.697 200.543L249.394 195.133Z" fill="#EE7E29"/>
<path d="M269.954 71.2403L245.327 61.4718L231.547 74.7585L254.959 83.8964L269.954 71.2403Z" fill="#243962"/>
<path d="M258.422 75.7362C258.422 75.7362 258.477 78.6695 260.633 79.5833C265.093 81.4748 260.844 83.6679 265.202 86.7566C266.207 87.4693 266.939 91.8921 259.966 92.5592C252.994 93.2263 252.135 93.8111 252.135 93.8111C250.472 94.7627 248.586 95.2548 246.671 95.2372C244.755 95.2195 242.878 94.6926 241.233 93.7106C237.916 91.7368 242.147 86.2357 240.575 84.8376C238.519 82.946 238.254 76.7688 241.233 74.2193C243.572 72.4459 246.196 71.0832 248.992 70.1894L258.422 75.7362Z" fill="#132744"/>
<path d="M278.005 82.1145L278.197 81.4932C271.599 79.5376 270.192 72.6933 269.973 71.1033C269.958 71.0019 269.914 70.907 269.845 70.8306C269.777 70.7542 269.688 70.6997 269.589 70.6738C269.543 70.6621 269.494 70.6623 269.448 70.6744C269.402 70.6865 269.359 70.71 269.325 70.7428C269.29 70.7756 269.264 70.8167 269.25 70.8621C269.235 70.9075 269.232 70.9559 269.242 71.0027C269.479 72.8486 271.097 80.0768 278.005 82.1145Z" fill="#EFCBAC"/>
<path d="M278.151 81.5023H279.028L278.69 82.5623L277.968 82.1145L278.151 81.5023Z" fill="#D8AA88"/>
<path d="M279.028 81.4932C279.028 81.4932 280.244 81.8313 280.499 81.4932C280.499 81.4932 280.499 82.5166 280.097 82.7907C279.62 82.8123 279.144 82.7345 278.699 82.5623L279.028 81.4932Z" fill="#EFCBAC"/>
<path d="M259.93 94.3777C259.311 94.068 258.76 93.6388 258.309 93.115C257.857 92.5911 257.513 91.9829 257.298 91.3256C256.494 89.1507 255.799 86.7566 255.799 86.7566L253.652 87.1038L247.932 88.0176L247.466 88.0907C247.888 89.1971 248.239 90.3295 248.516 91.4809C248.904 93.0156 249.082 94.5955 249.046 96.1778C249.063 96.5486 248.974 96.9164 248.792 97.2395C248.609 97.5626 248.34 97.8279 248.014 98.0054C247.849 98.106 254.045 118.411 257.033 117.396C259.628 116.537 260.186 94.3046 259.93 94.3777Z" fill="#FAB17E"/>
<path d="M249.046 96.2327C252.482 94.8437 255.799 86.784 255.799 86.784C255.066 86.7188 254.328 86.8382 253.652 87.1313C251.583 88.1235 249.812 89.6425 248.516 91.5358C248.904 93.0704 249.082 94.6503 249.046 96.2327Z" fill="#EE985E"/>
<path d="M246.853 92.9522C246.853 92.9522 257.07 91.2982 255.937 84.9564C254.804 78.6147 255.37 74.1188 248.8 74.9047C242.23 75.6905 241.398 78.3405 241.261 80.5428C241.124 82.7451 244.194 93.2446 246.853 92.9522Z" fill="#FAB17E"/>
<path d="M245.949 98.8461C245.949 98.8461 228.715 93.6649 227.49 92.2211C226.266 90.7773 223.287 71.6332 223.287 68.8736L220.774 69.2299C220.774 69.2299 218.946 91.0149 221.066 95.9494C223.186 100.884 244.953 108.679 244.953 108.679L245.949 98.8461Z" fill="#FAB17E"/>
<path d="M259.418 94.1584C259.418 94.1584 257.298 100.756 249.01 96.6074L257.719 115.742L259.985 98.6269L259.418 94.1584Z" fill="#F89748"/>
<path d="M266.454 96.0773C266.454 96.0773 265.413 99.5041 285.37 110.378L300.091 100.326L301.855 101.798C301.855 101.798 287.746 118.831 285.534 118.429C283.323 118.027 268.172 108.094 268.172 108.094L266.454 96.0773Z" fill="#FAB17E"/>
<path d="M212.211 181.143C212.702 182.575 213.294 183.971 213.984 185.319C216.113 189.568 220.28 196.065 227.252 199.94C235.166 204.362 260.798 212.815 278.425 208.721C278.425 208.721 276.753 152.98 273.061 130.135C272.97 129.605 272.887 129.093 272.796 128.599C273.874 132.712 279.375 134.082 281.642 133.305C286.594 131.633 288.321 127.777 288.559 123.701C288.925 117.415 285.754 110.598 285.388 110.387C277.255 105.773 275.738 98.4441 271.791 95.8215C268.264 93.4822 259.847 94.1036 259.436 94.1401L257.609 112.416L249.046 96.5617C249.046 96.5617 235.239 95.3555 227.526 92.2029C227.526 92.2029 204.444 124.131 233.009 123.711C233.009 131.067 229.573 137.747 226.256 147.689C222.939 157.631 212.211 181.143 212.211 181.143Z" fill="#1C478A"/>
<path d="M249.074 88.3284C249.074 88.3284 248.964 89.361 248.306 89.626C247.483 89.952 246.619 90.1641 245.738 90.2565C245.436 89.97 245.153 89.6648 244.889 89.3427C246.222 88.7862 247.634 88.4438 249.074 88.3284Z" fill="white"/>
<path d="M223.341 68.8827C223.341 68.8827 224.392 68.1517 223.835 66.1413C223.469 64.7981 223.716 63.7015 223.433 63.7381C223.15 63.7746 222.894 65.5657 222.711 65.9495C222.528 66.3332 220.271 61.9744 219.686 62.2943C219.101 62.6141 217.95 64.3412 220.691 70.2717L223.341 68.8827Z" fill="#FAB17E"/>
<path d="M300.091 100.308C300.091 100.308 301.654 96.5891 302.175 95.8215C303.207 94.3046 306.159 93.3542 306.351 93.9939C306.543 94.6335 304.459 95.6479 304.368 97.1922C304.368 97.6217 305.218 96.7901 305.766 96.4703C306.095 96.2692 306.287 96.4703 306.113 96.6805C305.254 97.9415 304.779 99.2391 303.948 99.7142C303.168 100.3 302.464 100.981 301.855 101.743L300.091 100.308Z" fill="#FAB17E"/>
<path d="M259.409 94.131L257.572 112.444L249.047 96.2327L245.94 96.251L258.486 119.069L261.703 94.0396L259.409 94.131Z" fill="#AB453F"/>
<path d="M242.641 75.1422C242.641 75.1422 239.644 78.6695 249.037 80.3966C249.697 80.4982 250.326 80.7406 250.883 81.1074C251.44 81.4741 251.912 81.9567 252.266 82.522C252.619 83.0874 252.847 83.7224 252.934 84.3838C253.02 85.0451 252.963 85.7173 252.766 86.3545C251.541 90.0097 254.639 93.9756 259.162 92.5501C262.818 91.417 256.878 74.4752 253.68 74.2193C250.481 73.9634 242.641 75.1422 242.641 75.1422Z" fill="#132744"/>
<path d="M245.949 75.9555C245.949 75.9555 242.915 78.1303 242.659 79.8757C242.403 81.621 241.69 84.1065 240.539 82.352C239.926 81.5176 239.595 80.5091 239.595 79.4736C239.595 78.4381 239.926 77.4296 240.539 76.5951C241.891 74.9868 244.907 74.2649 245.556 74.8224C245.733 74.9449 245.867 75.1209 245.938 75.3246C246.008 75.5284 246.012 75.7494 245.949 75.9555Z" fill="#132744"/>
<path d="M240.594 74.9686C240.594 74.9686 246.378 69.9793 258.678 77.3171L258.843 74.2832C258.367 72.4557 257.792 72.5013 256.147 71.6241C253.424 70.2467 250.396 69.5833 247.347 69.696C244.542 69.696 242.906 69.3579 241.627 71.8525L240.594 74.9686Z" fill="#1C478A"/>
<path d="M317.216 109.766C317.945 108.954 318.626 108.1 319.254 107.207C319.684 106.605 320.054 105.963 320.359 105.288C320.505 104.983 320.6 104.656 320.643 104.32C320.643 104.32 305.282 95.0173 303.893 93.7745C302.504 92.5318 289.939 82.7085 289.939 82.7085C289.306 83.3406 288.714 84.012 288.166 84.7188C287.795 85.1915 287.447 85.6825 287.124 86.19C286.496 87.1249 286.05 88.1696 285.809 89.2695C285.809 89.2695 301.891 97.2196 303.335 98.6725C304.779 100.125 317.216 109.766 317.216 109.766Z" fill="#EFCBAC"/>
<path d="M319.254 107.207C319.684 106.605 320.054 105.963 320.359 105.288C320.505 104.983 320.601 104.656 320.643 104.32C320.643 104.32 305.282 95.0173 303.893 93.7745C302.504 92.5318 289.939 82.7085 289.939 82.7085C289.306 83.3406 288.714 84.012 288.166 84.7188C287.795 85.1915 287.447 85.6825 287.125 86.19C291.648 88.4471 303.893 94.6335 305.218 95.9585C306.543 97.2835 315.525 104.302 319.254 107.207Z" fill="#DDB18F"/>
<path d="M301.434 91.7734C301.434 91.7734 305.702 93.7746 306.808 95.7575L304.386 99.6412C304.386 99.6412 300.466 97.8136 298.803 95.986L301.434 91.7734Z" fill="#CA4D44"/>
<path d="M303.947 99.7508C304.61 99.4693 305.201 99.0413 305.674 98.4989C306.323 97.6948 307.201 96.3881 306.113 96.717C305.026 97.046 303.098 98.4075 302.367 98.5446C301.635 98.6817 301.9 99.2391 301.855 99.3945C301.809 99.5498 303.947 99.7508 303.947 99.7508Z" fill="#FAB17E"/>
<path d="M212.211 181.143C212.702 182.575 213.294 183.971 213.984 185.319C220.243 178.793 225.481 171.359 229.519 163.269C237.268 147.104 232.964 123.729 232.964 123.729C232.964 131.085 229.528 137.765 226.211 147.707C222.893 157.649 212.211 181.143 212.211 181.143Z" fill="#243962"/>
<path d="M259.985 125.666C259.985 125.514 259.94 125.366 259.855 125.24C259.771 125.113 259.651 125.015 259.511 124.957C259.371 124.899 259.216 124.884 259.067 124.913C258.918 124.943 258.782 125.016 258.674 125.123C258.567 125.231 258.494 125.367 258.464 125.516C258.435 125.665 258.45 125.82 258.508 125.96C258.566 126.1 258.664 126.22 258.791 126.304C258.917 126.389 259.065 126.434 259.217 126.434C259.318 126.435 259.419 126.416 259.512 126.378C259.606 126.34 259.691 126.283 259.763 126.212C259.834 126.14 259.891 126.055 259.929 125.961C259.967 125.868 259.986 125.767 259.985 125.666Z" fill="#243962"/>
<path d="M259.985 139.684C259.983 139.532 259.936 139.385 259.851 139.26C259.765 139.135 259.645 139.038 259.504 138.981C259.364 138.924 259.21 138.911 259.062 138.941C258.913 138.972 258.778 139.046 258.671 139.153C258.565 139.261 258.492 139.398 258.464 139.547C258.435 139.695 258.45 139.849 258.509 139.989C258.567 140.128 258.665 140.248 258.792 140.332C258.918 140.416 259.066 140.461 259.217 140.461C259.319 140.461 259.419 140.44 259.513 140.401C259.607 140.362 259.692 140.305 259.763 140.232C259.834 140.16 259.891 140.075 259.929 139.98C259.967 139.886 259.986 139.785 259.985 139.684Z" fill="#243962"/>
<path d="M273.043 130.125C272.951 129.595 272.869 129.084 272.778 128.59C273.856 132.702 279.357 134.073 281.623 133.296C286.576 131.624 288.303 127.768 288.541 123.692C288.002 123.966 279.951 128.088 276.214 125.666C272.476 123.245 270.036 117.625 269.963 117.442L273.043 130.125Z" fill="#243962"/>
<path d="M435.242 54.8651C433.822 55.8836 432.119 56.4302 430.371 56.4277C428.874 56.2075 427.478 55.5384 426.369 54.5087L424.953 57.2501C424.953 57.2501 428.608 59.2148 431.559 58.4929C432.703 58.0977 433.736 57.4369 434.575 56.5647C434.997 56.0981 435.234 55.4939 435.242 54.8651Z" fill="#6DB7C0"/>
<path d="M434.922 49.3183L438.715 47.4907C438.715 47.4907 438.559 55.5504 432.035 58.3101C432.035 58.3558 435.973 52.6628 434.922 49.3183Z" fill="#87D0CD"/>
<path d="M33.1069 128.216C31.6814 129.229 29.9763 129.775 28.2272 129.778C26.7338 129.545 25.342 128.877 24.2247 127.859L22.8083 130.601C22.8083 130.601 26.4636 132.574 29.4151 131.853C30.5574 131.455 31.5904 130.794 32.4306 129.924C32.8541 129.455 33.0941 128.848 33.1069 128.216Z" fill="#6DB7C0"/>
<path d="M32.7871 122.651L36.5794 120.869C36.5794 120.869 36.4149 128.928 29.8904 131.688C29.8904 131.688 33.8288 125.995 32.7871 122.651Z" fill="#87D0CD"/>
<path d="M338.124 2.44959C338.124 2.44959 343.606 -1.37922 347.764 4.32288L352.333 2.36735C352.333 2.36735 350.094 -1.16906 341.295 0.402675C335.501 1.42613 338.124 2.44959 338.124 2.44959Z" fill="#5D84C3"/>
<path d="M332.696 6.18701C332.696 6.18701 334.194 0.000610352 345.489 0.000610352C345.489 0.000610352 341.258 0.402678 337.941 5.8946L332.696 6.18701Z" fill="#7A97CD"/>
<path d="M302.001 27.314C302.001 27.314 298.958 25.3951 298.638 23.074C298.638 23.074 295.678 23.2385 295.038 24.198C295.038 24.198 296.399 28.0359 297.999 28.767C297.999 28.7578 301.599 29.0046 302.001 27.314Z" fill="#EC7E2A"/>
<path d="M503.713 189.248C503.713 189.248 500.67 187.32 500.35 184.999C500.35 184.999 497.38 185.164 496.695 186.123C496.695 186.123 498.056 189.961 499.656 190.692C499.738 190.683 503.347 190.93 503.713 189.248Z" fill="#EC7E2A"/>
<path d="M7.01797 183.866C7.01797 183.866 3.97503 181.947 3.6552 179.626C3.6552 179.626 0.685349 179.781 0 180.741C0 180.741 1.36156 184.588 2.9607 185.31C3.00639 185.31 6.60676 185.538 7.01797 183.866Z" fill="#EC7E2A"/>
</svg>
