<svg width="120" height="103" viewBox="0 0 120 103" fill="none" xmlns="http://www.w3.org/2000/svg">
<path fill-rule="evenodd" clip-rule="evenodd" d="M1.00002 55.2851C1.00002 59.8551 4.95802 63.5621 9.84002 63.5621C14.721 63.5621 18.679 59.8561 18.679 55.2851C18.679 50.7141 14.721 47.0081 9.83902 47.0081C4.95802 47.0081 0.999023 50.7141 0.999023 55.2851" fill="white"/>
<path fill-rule="evenodd" clip-rule="evenodd" d="M1.00002 55.2851C1.00002 59.8551 4.95802 63.5621 9.84002 63.5621C14.721 63.5621 18.679 59.8561 18.679 55.2851C18.679 50.7141 14.721 47.0081 9.83902 47.0081C4.95802 47.0081 0.999023 50.7141 0.999023 55.2851H1.00002Z" stroke="#4C4C4C" stroke-width="2" stroke-linejoin="round"/>
<path fill-rule="evenodd" clip-rule="evenodd" d="M47.2821 101.106C26.6891 101.106 9.84009 84.2541 9.84009 63.6581V39.1011C9.84009 18.5051 26.6891 1.65405 47.2821 1.65405C67.8751 1.65405 84.7241 18.5051 84.7241 39.1011V63.6581C84.7241 84.2541 67.8751 101.106 47.2821 101.106Z" fill="white"/>
<path fill-rule="evenodd" clip-rule="evenodd" d="M47.2821 101.106C26.6891 101.106 9.84009 84.2541 9.84009 63.6581V39.1011C9.84009 18.5051 26.6891 1.65405 47.2821 1.65405C67.8751 1.65405 84.7241 18.5051 84.7241 39.1011V63.6581C84.7241 84.2541 67.8751 101.106 47.2821 101.106V101.106Z" stroke="#4C4C4C" stroke-width="2" stroke-linejoin="round"/>
<path fill-rule="evenodd" clip-rule="evenodd" d="M75.2601 66.3359C75.2601 77.2149 66.4441 86.0339 55.5651 86.0339C44.6881 86.0339 35.8701 77.2139 35.8701 66.3359H75.2601Z" fill="#DDDDDD"/>
<path fill-rule="evenodd" clip-rule="evenodd" d="M75.2601 66.3359C75.2601 77.2149 66.4441 86.0339 55.5651 86.0339C44.6881 86.0339 35.8701 77.2139 35.8701 66.3359H75.2601Z" stroke="#4C4C4C" stroke-width="2" stroke-linejoin="round"/>
<path fill-rule="evenodd" clip-rule="evenodd" d="M36.9231 72.6859H74.2091C74.9064 70.6415 75.2618 68.496 75.2611 66.3359H35.8701C35.8701 68.5579 36.2431 70.6939 36.9221 72.6859" fill="white"/>
<path fill-rule="evenodd" clip-rule="evenodd" d="M36.9231 72.6859H74.2091C74.9064 70.6415 75.2618 68.496 75.2611 66.3359H35.8701C35.8701 68.5579 36.2431 70.6939 36.9221 72.6859H36.9231Z" stroke="#4C4C4C" stroke-width="2" stroke-linejoin="round"/>
<path fill-rule="evenodd" clip-rule="evenodd" d="M43.312 46.2642C43.312 47.4354 42.8467 48.5586 42.0186 49.3867C41.1904 50.2149 40.0672 50.6802 38.896 50.6802C37.7248 50.6802 36.6016 50.2149 35.7734 49.3867C34.9452 48.5586 34.48 47.4354 34.48 46.2642C34.48 45.093 34.9452 43.9697 35.7734 43.1416C36.6016 42.3134 37.7248 41.8482 38.896 41.8482C40.0672 41.8482 41.1904 42.3134 42.0186 43.1416C42.8467 43.9697 43.312 45.093 43.312 46.2642ZM79.465 46.2642C79.465 46.8441 79.3507 47.4184 79.1288 47.9543C78.9068 48.4901 78.5815 48.977 78.1714 49.3871C77.7613 49.7972 77.2744 50.1225 76.7386 50.3445C76.2028 50.5664 75.6285 50.6807 75.0485 50.6807C74.4685 50.6807 73.8942 50.5664 73.3584 50.3445C72.8225 50.1225 72.3357 49.7972 71.9255 49.3871C71.5154 48.977 71.1901 48.4901 70.9682 47.9543C70.7462 47.4184 70.632 46.8441 70.632 46.2642C70.632 45.0928 71.0973 43.9695 71.9255 43.1412C72.7538 42.313 73.8772 41.8477 75.0485 41.8477C76.2198 41.8477 77.3432 42.313 78.1714 43.1412C78.9997 43.9695 79.465 45.0928 79.465 46.2642Z" fill="#4C4C4C"/>
<path fill-rule="evenodd" clip-rule="evenodd" d="M64.333 53.4102V55.9872C64.333 57.1712 63.373 58.1322 62.188 58.1322H54.614C54.0453 58.1319 53.4999 57.9058 53.0979 57.5035C52.6958 57.1013 52.47 56.5559 52.47 55.9872V53.4102" fill="white"/>
<path d="M64.333 53.4102V55.9872C64.333 57.1712 63.373 58.1322 62.188 58.1322H54.614C54.0453 58.1319 53.4999 57.9058 53.0979 57.5035C52.6958 57.1013 52.47 56.5559 52.47 55.9872V53.4102" stroke="#4C4C4C" stroke-width="2" stroke-linejoin="round"/>
<path fill-rule="evenodd" clip-rule="evenodd" d="M66.994 1.06006H35.8989C29.9649 1.06006 24.6559 4.19006 21.0469 9.12006C19.3109 6.79906 16.5489 5.29006 13.4269 5.29006C8.16695 5.29006 3.90595 9.55306 3.90595 14.8121V18.1621C3.90495 18.1861 3.89795 18.2071 3.89795 18.2321V49.1751C5.08313 48.1636 6.51197 47.4794 8.04295 47.1901H8.08295C16.2929 47.1901 22.9489 40.5331 22.9489 32.3221V24.4291H78.8939C89.7669 24.4291 98.5819 13.9671 98.5819 1.06006H66.994Z" fill="#DDDDDD"/>
<path fill-rule="evenodd" clip-rule="evenodd" d="M66.994 1.06006H35.8989C29.9649 1.06006 24.6559 4.19006 21.0469 9.12006C19.3109 6.79906 16.5489 5.29006 13.4269 5.29006C8.16695 5.29006 3.90595 9.55306 3.90595 14.8121V18.1621C3.90495 18.1861 3.89795 18.2071 3.89795 18.2321V49.1751C5.08313 48.1636 6.51197 47.4794 8.04295 47.1901H8.08295C16.2929 47.1901 22.9489 40.5331 22.9489 32.3221V24.4291H78.8939C89.7669 24.4291 98.5819 13.9671 98.5819 1.06006H66.994V1.06006Z" stroke="#4C4C4C" stroke-width="2" stroke-linejoin="round"/>
<path d="M97.8459 89.4361C109.109 89.4361 118.241 80.3041 118.241 69.0391C118.241 57.7731 109.109 48.6421 97.8459 48.6421M97.8459 77.3221C98.9414 77.3341 100.028 77.1288 101.044 76.7179C102.059 76.307 102.983 75.6987 103.762 74.9284C104.541 74.158 105.16 73.2407 105.582 72.2298C106.004 71.2188 106.221 70.1341 106.221 69.0386C106.221 67.9431 106.004 66.8584 105.582 65.8474C105.16 64.8365 104.541 63.9192 103.762 63.1488C102.983 62.3784 102.059 61.7702 101.044 61.3593C100.028 60.9484 98.9414 60.7431 97.8459 60.7551V77.3221Z" stroke="#3A10E5" stroke-width="2" stroke-linecap="round" stroke-linejoin="round"/>
</svg>
