<svg width="91" height="85" viewBox="0 0 91 85" fill="none" xmlns="http://www.w3.org/2000/svg">
<path d="M86.0787 37.3626C85.5115 37.3626 84.9442 37.763 84.9442 38.4301V59.7802C84.9442 60.314 85.3697 60.8477 86.0787 60.8477C86.7878 60.8477 87.2132 60.4474 87.2132 59.7802V38.4301C87.2132 37.763 86.646 37.3626 86.0787 37.3626Z" fill="#A7A7A7"/>
<path d="M86.0787 29.3564C85.5115 29.3564 84.9442 29.7567 84.9442 30.4239V33.0927C84.9442 33.6264 85.3697 34.1602 86.0787 34.1602C86.7878 34.1602 87.2132 33.7599 87.2132 33.0927V30.4239C87.2132 29.7567 86.646 29.3564 86.0787 29.3564Z" fill="#A7A7A7"/>
<path d="M9.21772 59.6468C9.21772 59.113 8.79229 58.5793 8.08324 58.5793H6.38152V56.8446C6.38152 56.3108 5.95609 55.7771 5.24704 55.7771C4.53799 55.7771 4.11256 56.1774 4.11256 56.8446V58.5793H2.41085C1.84361 58.5793 1.27637 58.9796 1.27637 59.6468C1.27637 60.314 1.7018 60.7143 2.41085 60.7143H4.25437V62.449C4.25437 62.9827 4.6798 63.5165 5.38885 63.5165C6.0979 63.5165 6.52333 63.1161 6.52333 62.449V60.7143H8.36686C8.65048 60.7143 9.21772 60.1805 9.21772 59.6468Z" fill="#3A10E5"/>
<path d="M36.8215 16.0126V16.9126H37.7215H40.9832C41.1263 16.9126 41.1843 16.942 41.1983 16.951C41.199 16.9524 41.1999 16.9544 41.201 16.9573C41.2063 16.9709 41.2176 17.0085 41.2176 17.0801C41.2176 17.1164 41.2106 17.135 41.2064 17.144C41.2015 17.1542 41.1927 17.1675 41.1753 17.1825C41.1353 17.217 41.0635 17.2476 40.9832 17.2476H36.7289C36.6661 17.2476 36.625 17.2361 36.5997 17.2255C36.5738 17.2147 36.5549 17.2008 36.5404 17.186C36.5085 17.1532 36.4944 17.1114 36.4944 17.0801V9.07378C36.4944 4.65621 32.6356 1.10157 28.0784 1.10157H26.6603C22.1032 1.10157 18.2444 4.65621 18.2444 9.07378V18.4144C18.2444 18.486 18.2331 18.5236 18.2278 18.5372C18.2267 18.5401 18.2257 18.5421 18.2251 18.5435C18.2111 18.5525 18.153 18.5819 18.0099 18.5819C17.9472 18.5819 17.9061 18.5705 17.8808 18.5599C17.8549 18.5491 17.836 18.5352 17.8215 18.5203C17.7896 18.4876 17.7755 18.4458 17.7755 18.4144V9.07378C17.7755 4.55931 21.7074 0.9 26.5185 0.9H81.8244C84.0858 0.9 85.8944 1.68414 87.1592 3.03395C88.4296 4.38972 89.2227 6.39362 89.2912 8.95209V16.9466C89.2912 16.983 89.2842 17.0016 89.28 17.0105C89.2751 17.0208 89.2663 17.034 89.2489 17.0491C89.2088 17.0836 89.1371 17.1141 89.0568 17.1141H80.1227H79.2227V18.0141V75.9262C79.2227 80.4407 75.2908 84.1 70.4796 84.1H18.0099C13.0747 84.1 9.26685 80.3239 9.26685 75.9262V67.9199C9.26685 67.8836 9.27391 67.865 9.27814 67.8561C9.28299 67.8458 9.29178 67.8325 9.30921 67.8175C9.34924 67.783 9.42095 67.7524 9.50133 67.7524H9.594V68.5871V75.6593C9.594 80.0769 13.4528 83.6316 18.0099 83.6316H64.3818H66.9095L64.9506 82.0341C62.9973 80.4412 61.7366 78.1481 61.7366 75.6593V68.5871V67.7524H61.8292C61.892 67.7524 61.933 67.7639 61.9584 67.7745C61.9843 67.7853 62.0032 67.7992 62.0177 67.814C62.0496 67.8468 62.0637 67.8886 62.0637 67.9199V75.9262C62.0637 80.3438 65.9225 83.8984 70.4796 83.8984C75.0368 83.8984 78.8956 80.3438 78.8956 75.9262V18.1476V17.2476H77.9956H46.3719C46.2288 17.2476 46.1708 17.2181 46.1568 17.2092C46.1561 17.2078 46.1552 17.2057 46.1541 17.2028C46.1488 17.1893 46.1375 17.1516 46.1375 17.0801C46.1375 17.0437 46.1445 17.0251 46.1487 17.0162C46.1536 17.0059 46.1624 16.9927 46.1798 16.9776C46.2199 16.9431 46.2916 16.9126 46.3719 16.9126H88.2059H89.1059V16.0126V8.94035C89.1059 7.07663 88.6515 5.10417 87.5322 3.57227C86.3854 2.00263 84.5892 0.968132 82.1081 0.968132H34.1763H31.6486L33.6075 2.56561C35.5608 4.1585 36.8215 6.45153 36.8215 8.94035V16.0126ZM41.2018 16.9535C41.2018 16.9535 41.2014 16.9532 41.2007 16.9526L41.2018 16.9535ZM18.2286 18.541C18.2286 18.541 18.2282 18.5414 18.2274 18.542L18.2286 18.541ZM18.2444 67.6871H17.7755V66.8524V61.1146C17.7755 61.0431 17.7868 61.0054 17.7921 60.9919C17.7932 60.989 17.7941 60.9869 17.7948 60.9855C17.8088 60.9766 17.8669 60.9471 18.0099 60.9471C18.0727 60.9471 18.1137 60.9586 18.1391 60.9692C18.165 60.98 18.1839 60.9938 18.1984 61.0087C18.2303 61.0415 18.2444 61.0832 18.2444 61.1146V66.8524V67.6871ZM17.7913 60.988C17.7913 60.988 17.7916 60.9877 17.7924 60.9872L17.7913 60.988ZM46.1533 17.2066C46.1533 17.2066 46.1536 17.2069 46.1544 17.2075L46.1533 17.2066Z" fill="#5E5E5E" stroke="#5E5E5E" stroke-width="1.8"/>
<path d="M41.6455 47.0095H72.8437C73.4109 47.0095 73.9782 46.6092 73.9782 45.942C73.9782 45.2748 73.5527 44.8745 72.8437 44.8745H41.6455C41.0782 44.8745 40.511 45.2748 40.511 45.942C40.511 46.6092 41.0782 47.0095 41.6455 47.0095Z" fill="#A7A7A7"/>
<path d="M41.5771 38.92C41.5771 39.4537 42.0025 39.9875 42.7115 39.9875H73.9098C74.477 39.9875 75.0443 39.5872 75.0443 38.92C75.0443 38.2528 74.6188 37.8525 73.9098 37.8525H42.7115C42.0025 37.9859 41.5771 38.3862 41.5771 38.92Z" fill="#A7A7A7"/>
<path d="M56.5705 32.9655H73.5877C74.155 32.9655 74.7222 32.5651 74.7222 31.898C74.7222 31.2308 74.2968 30.8304 73.5877 30.8304H56.5705C56.0033 30.8304 55.4361 31.2308 55.4361 31.898C55.4361 32.5651 56.0033 32.9655 56.5705 32.9655Z" fill="#A7A7A7"/>
<path d="M56.5705 25.887H73.5877C74.155 25.887 74.7222 25.4867 74.7222 24.8195C74.7222 24.1523 74.2968 23.752 73.5877 23.752H56.5705C56.0033 23.752 55.4361 24.1523 55.4361 24.8195C55.4361 25.4867 56.0033 25.887 56.5705 25.887Z" fill="#A7A7A7"/>
<path d="M42.1176 52.708H73.3158C73.883 52.708 74.4503 52.3077 74.4503 51.6405C74.4503 50.9734 74.0248 50.5731 73.3158 50.5731H42.1176C41.5503 50.5731 40.9831 50.9734 40.9831 51.6405C40.9831 52.3077 41.5503 52.708 42.1176 52.708Z" fill="#A7A7A7"/>
<path d="M41.6455 59.0472H72.8437C73.4109 59.0472 73.9782 58.6468 73.9782 57.9796C73.9782 57.3125 73.5527 56.9121 72.8437 56.9121H41.6455C41.0782 56.9121 40.511 57.3125 40.511 57.9796C40.511 58.6468 41.0782 59.0472 41.6455 59.0472Z" fill="#A7A7A7"/>
<path d="M29.7211 49.8696L30.0964 50.2228L30.438 49.837C32.6317 47.36 34.0923 44.1975 34.5304 40.7618L34.6022 40.1986H34.0344H20.7043H19.4433L20.3616 41.0627L29.7211 49.8696ZM33.8926 39.197H34.4313L34.3912 38.6598C33.804 30.7854 27.3467 24.7362 19.1779 24.1872L18.6444 24.1513V24.686V38.697V39.197H19.1444H33.8926ZM17.5172 24.686V24.1531L16.9854 24.1871C8.38628 24.7356 1.62715 31.4645 1.62715 39.4977C1.62715 48.2114 9.11539 55.0761 18.1517 55.0761C22.2459 55.0761 26.0412 53.5632 28.9579 51.2303L29.4078 50.8705L28.9883 50.4757L17.7853 39.9341L17.659 39.8153L17.6409 39.7983L17.5176 39.6823C17.5175 39.6794 17.5175 39.6763 17.5174 39.6728C17.5172 39.661 17.5172 39.6485 17.5172 39.6311V24.686ZM30.4301 51.4098C27.2627 54.3903 22.8479 56.2111 18.0099 56.2111C8.33544 56.2111 0.5 48.6723 0.5 39.6311C0.5 30.5873 8.05454 23.1845 17.8681 23.1845C27.6869 23.1845 35.5198 30.7258 35.5198 39.7645C35.5198 44.2897 33.5968 48.4301 30.4301 51.4098Z" fill="#3A10E5" stroke="#3A10E5"/>
<path d="M43.5358 17.8807C43.8194 17.8807 44.103 17.7473 44.2448 17.6138C44.3866 17.4804 44.5285 17.2135 44.5285 16.9467C44.5285 16.6798 44.3866 16.4129 44.2448 16.2795C44.103 16.146 44.103 16.146 43.8194 16.0126C43.5358 15.8791 43.2522 15.8791 42.9685 16.0126C42.8267 16.0126 42.6849 16.146 42.6849 16.2795C42.5431 16.4129 42.5431 16.5463 42.4013 16.6798C42.4013 16.8132 42.2595 16.9467 42.2595 17.0801C42.2595 17.2135 42.2595 17.347 42.2595 17.4804C42.2595 17.6138 42.4013 17.7473 42.5431 17.7473C42.9685 17.8807 43.2522 17.8807 43.5358 17.8807Z" fill="#A7A7A7"/>
</svg>
