<svg width="29" height="21" viewBox="0 0 29 21" fill="none" xmlns="http://www.w3.org/2000/svg">
<path d="M0.9 20.069C0.402944 20.069 0 19.6661 0 19.169V0.899908C0 0.402852 0.402944 -9.15527e-05 0.9 -9.15527e-05H27.45C27.9471 -9.15527e-05 28.35 0.402852 28.35 0.899908V19.169C28.35 19.6661 27.9471 20.069 27.45 20.069H0.9ZM26.55 18.269V1.79991H1.8V18.269H26.55Z" fill="#3A10E5"/>
<path d="M11.016 7.10946C11.016 5.94071 10.069 4.99356 8.90096 4.99356C7.73292 4.99356 6.78596 5.94071 6.78596 7.10946C6.78596 8.2774 7.73302 9.22446 8.90096 9.22446C10.0689 9.22446 11.016 8.2774 11.016 7.10946ZM12.816 7.10946C12.816 9.27151 11.063 11.0245 8.90096 11.0245C6.73891 11.0245 4.98596 9.27151 4.98596 7.10946C4.98596 4.94668 6.73872 3.19356 8.90096 3.19356C11.0632 3.19356 12.816 4.94668 12.816 7.10946Z" fill="#3A10E5"/>
<path d="M8.90133 9.2241C12.2525 9.2241 14.1771 11.545 14.1771 14.6466C14.1771 15.1437 13.7742 15.5466 13.2771 15.5466H4.52463C4.02758 15.5466 3.62463 15.1437 3.62463 14.6466C3.62463 11.5448 5.54944 9.2241 8.90133 9.2241ZM8.90133 11.0241C6.95658 11.0241 5.79657 12.0819 5.5004 13.7466H12.3014C12.0052 12.0819 10.8454 11.0241 8.90133 11.0241ZM16.8774 15.547H23.8254C24.3225 15.547 24.7254 15.144 24.7254 14.647C24.7254 14.1499 24.3225 13.747 23.8254 13.747H16.8774C16.3803 13.747 15.9774 14.1499 15.9774 14.647C15.9774 15.144 16.3803 15.547 16.8774 15.547ZM16.8774 10.8474H23.8254C24.3225 10.8474 24.7254 10.4445 24.7254 9.94743C24.7254 9.45037 24.3225 9.04743 23.8254 9.04743H16.8774C16.3803 9.04743 15.9774 9.45037 15.9774 9.94743C15.9774 10.4445 16.3803 10.8474 16.8774 10.8474ZM16.8774 6.1479H20.3514C20.8485 6.1479 21.2514 5.74496 21.2514 5.2479C21.2514 4.75084 20.8485 4.3479 20.3514 4.3479H16.8774C16.3803 4.3479 15.9774 4.75084 15.9774 5.2479C15.9774 5.74496 16.3803 6.1479 16.8774 6.1479Z" fill="#3A10E5"/>
</svg>
