<svg width="27" height="27" viewBox="0 0 27 27" fill="none" xmlns="http://www.w3.org/2000/svg">
<path d="M9.80373 19.9275L9.01583 21.3054M14.2188 1.01938V12.5217H1.80591C1.80591 19.319 7.13171 25.071 13.7011 25.071C20.2712 25.071 25.5962 19.6867 25.5962 13.0452C25.5962 6.40367 20.2712 1.01938 14.2188 1.01938V1.01938ZM13.7399 22.5852V20.9938V22.5852ZM18.4629 21.3057L17.6758 19.9278L18.4629 21.3057ZM9.80373 6.14294L9.01583 4.76425L9.80373 6.14294ZM21.921 17.8104L20.5573 17.0138L21.921 17.8104ZM6.92212 9.05538L5.55841 8.25964L6.92212 9.05538ZM23.1866 13.0348H21.6116H23.1866ZM21.921 8.25996L20.5573 9.0557L21.921 8.25996ZM6.92212 17.0142L5.55841 17.8108L6.92212 17.0142ZM18.4629 4.76392L17.6758 6.14261L18.4629 4.76392Z" stroke="#3A10E5" stroke-width="1.85" stroke-linecap="round" stroke-linejoin="round"/>
</svg>
