<svg width="202" height="147" viewBox="0 0 202 147" fill="none" xmlns="http://www.w3.org/2000/svg">
<path fill-rule="evenodd" clip-rule="evenodd" d="M51.4489 136.697V58.6002C51.4489 54.6589 54.647 51.4634 58.5926 51.4634H181.146C185.091 51.4634 188.289 54.6589 188.289 58.6002V136.697H51.4489Z" fill="white"/>
<path fill-rule="evenodd" clip-rule="evenodd" d="M51.4489 136.697V58.6002C51.4489 54.6589 54.647 51.4634 58.5926 51.4634H181.146C185.091 51.4634 188.289 54.6589 188.289 58.6002V136.697H51.4489Z" stroke="#4C4C4C" stroke-width="1.8" stroke-linejoin="round"/>
<path fill-rule="evenodd" clip-rule="evenodd" d="M177.671 137.069H62.0664V65.8205C62.0664 63.7487 63.7477 62.0693 65.8208 62.0693H173.918C175.991 62.0693 177.671 63.7487 177.671 65.8205V137.069Z" fill="#F0F0F0"/>
<path fill-rule="evenodd" clip-rule="evenodd" d="M177.671 137.069H62.0664V65.8205C62.0664 63.7487 63.7477 62.0693 65.8208 62.0693H173.918C175.991 62.0693 177.671 63.7487 177.671 65.8205V137.069Z" stroke="#4C4C4C" stroke-width="1.8" stroke-linejoin="round"/>
<path fill-rule="evenodd" clip-rule="evenodd" d="M122.307 56.7463C122.307 58.0919 121.215 59.1817 119.869 59.1817C118.523 59.1817 117.432 58.0919 117.432 56.7463C117.432 55.4017 118.523 54.3119 119.869 54.3119C121.215 54.3119 122.307 55.4017 122.307 56.7463Z" fill="#E8E8E8"/>
<path fill-rule="evenodd" clip-rule="evenodd" d="M122.307 56.7463C122.307 58.0919 121.215 59.1817 119.869 59.1817C118.523 59.1817 117.432 58.0919 117.432 56.7463C117.432 55.4017 118.523 54.3119 119.869 54.3119C121.215 54.3119 122.307 55.4017 122.307 56.7463Z" stroke="#4C4C4C" stroke-width="1.8"/>
<path fill-rule="evenodd" clip-rule="evenodd" d="M193.917 145.402H45.8208C42.2875 145.402 39.4236 142.542 39.4236 139.011V135.884H200.316V139.011C200.316 142.542 197.452 145.402 193.917 145.402Z" fill="white"/>
<path fill-rule="evenodd" clip-rule="evenodd" d="M193.917 145.402H45.8208C42.2875 145.402 39.4236 142.542 39.4236 139.011V135.884H200.316V139.011C200.316 142.542 197.452 145.402 193.917 145.402Z" stroke="#4C4C4C" stroke-width="1.8" stroke-linejoin="round"/>
<path fill-rule="evenodd" clip-rule="evenodd" d="M133.003 138.919H110.797C109.031 138.919 107.599 137.488 107.599 135.725V134.752H136.202V135.725C136.202 137.488 134.77 138.919 133.003 138.919Z" fill="#4C4C4C"/>
<path fill-rule="evenodd" clip-rule="evenodd" d="M74.3644 135.8H165.374V1.59782H74.3644V135.8Z" fill="white"/>
<path fill-rule="evenodd" clip-rule="evenodd" d="M74.3644 135.8H165.374V1.59782H74.3644V135.8Z" stroke="#4C4C4C" stroke-width="1.8" stroke-linejoin="round"/>
<path d="M106.197 49.6995H148.09M106.197 42.0879H152.425H106.197Z" stroke="#A7A7A7" stroke-width="1.8" stroke-linecap="round" stroke-linejoin="round"/>
<path fill-rule="evenodd" clip-rule="evenodd" d="M99.8064 45.8937C99.8064 49.6562 96.7523 52.7069 92.9845 52.7069C89.2177 52.7069 86.1636 49.6562 86.1636 45.8937C86.1636 42.1301 89.2177 39.0794 92.9845 39.0794C96.7523 39.0794 99.8064 42.1301 99.8064 45.8937Z" fill="#E8E8E8"/>
<path d="M106.197 73.6695H148.09M90.1759 45.997L91.9796 47.7987L95.7937 43.9889L90.1759 45.997ZM106.197 66.058H152.425H106.197Z" stroke="#A7A7A7" stroke-width="1.8" stroke-linecap="round" stroke-linejoin="round"/>
<path fill-rule="evenodd" clip-rule="evenodd" d="M99.8064 69.8638C99.8064 73.6263 96.7523 76.677 92.9845 76.677C89.2177 76.677 86.1636 73.6263 86.1636 69.8638C86.1636 66.1013 89.2177 63.0506 92.9845 63.0506C96.7523 63.0506 99.8064 66.1013 99.8064 69.8638Z" fill="#E8E8E8"/>
<path d="M106.197 121.611H148.09M90.1759 69.9681L91.9796 71.7687L95.7937 67.9589L90.1759 69.9681ZM106.197 113.998H152.425H106.197Z" stroke="#A7A7A7" stroke-width="1.8" stroke-linecap="round" stroke-linejoin="round"/>
<path fill-rule="evenodd" clip-rule="evenodd" d="M99.8064 117.804C99.8064 121.567 96.7523 124.618 92.9845 124.618C89.2177 124.618 86.1636 121.567 86.1636 117.804C86.1636 114.041 89.2177 110.991 92.9845 110.991C96.7523 110.991 99.8064 114.041 99.8064 117.804Z" fill="#E8E8E8"/>
<path d="M106.197 25.7294H148.09M90.1759 117.908L91.9796 119.71L95.7937 115.899L90.1759 117.908ZM106.197 18.1168H152.425H106.197Z" stroke="#A7A7A7" stroke-width="1.8" stroke-linecap="round" stroke-linejoin="round"/>
<path fill-rule="evenodd" clip-rule="evenodd" d="M99.8064 21.9236C99.8064 25.6862 96.7523 28.7369 92.9845 28.7369C89.2177 28.7369 86.1636 25.6862 86.1636 21.9236C86.1636 18.1601 89.2177 15.1094 92.9845 15.1094C96.7523 15.1094 99.8064 18.1601 99.8064 21.9236Z" fill="#E8E8E8"/>
<path d="M106.197 97.6396H148.09M90.4541 24.4514L95.5166 19.3946L90.4541 24.4514ZM90.4541 19.3948L95.5166 24.4516L90.4541 19.3948ZM106.197 90.0281H152.425H106.197Z" stroke="#A7A7A7" stroke-width="1.8" stroke-linecap="round" stroke-linejoin="round"/>
<path fill-rule="evenodd" clip-rule="evenodd" d="M99.8064 93.8338C99.8064 97.5974 96.7523 100.648 92.9845 100.648C89.2177 100.648 86.1636 97.5974 86.1636 93.8338C86.1636 90.0713 89.2177 87.0206 92.9845 87.0206C96.7523 87.0206 99.8064 90.0713 99.8064 93.8338Z" fill="#E8E8E8"/>
<path fill-rule="evenodd" clip-rule="evenodd" d="M90.4541 96.3626L95.5165 91.3058L90.4541 96.3626ZM90.4541 91.3061L95.5165 96.3628L90.4541 91.3061Z" stroke="#A7A7A7" stroke-width="1.8" stroke-linecap="round" stroke-linejoin="round"/>
<path fill-rule="evenodd" clip-rule="evenodd" d="M51.1124 84.6498L59.5735 78.0122L54.3517 71.3716L45.8916 78.0092L51.1124 84.6498Z" fill="#CACACA"/>
<path fill-rule="evenodd" clip-rule="evenodd" d="M51.1124 84.6498L59.5735 78.0123L54.3517 71.3716L45.8916 78.0092L51.1124 84.6498Z" stroke="#4C4C4C" stroke-width="1.8" stroke-linejoin="round"/>
<path fill-rule="evenodd" clip-rule="evenodd" d="M55.6695 81.0739L61.9907 76.1157L56.7688 69.475L50.4487 74.4332L55.6695 81.0739Z" fill="#4C4C4C"/>
<path fill-rule="evenodd" clip-rule="evenodd" d="M60.1053 32.7615C66.6135 27.6339 74.725 25.3382 82.9372 26.3068C91.17 27.2723 98.539 31.3954 103.675 37.92C108.783 44.4189 111.07 52.51 110.104 60.6842C108.106 77.6388 92.6611 89.8211 75.6875 87.816C67.4475 86.8484 60.0806 82.7171 54.942 76.1935C49.8302 69.6977 47.5514 61.62 48.5139 53.4416C49.4806 45.2345 53.5929 37.8892 60.1053 32.7615Z" fill="#DDDDDD"/>
<path fill-rule="evenodd" clip-rule="evenodd" d="M60.1053 32.7615C66.6135 27.6339 74.725 25.3382 82.9372 26.3068C91.17 27.2723 98.539 31.3954 103.675 37.92C108.783 44.4189 111.07 52.51 110.104 60.6842C108.106 77.6388 92.6611 89.8211 75.6875 87.816C67.4475 86.8484 60.0806 82.7171 54.942 76.1935C49.8302 69.6977 47.5514 61.62 48.5139 53.4416C49.4806 45.2345 53.5929 37.8892 60.1053 32.7615V32.7615Z" stroke="#4C4C4C" stroke-width="1.8" stroke-linejoin="round"/>
<path fill-rule="evenodd" clip-rule="evenodd" d="M59.9748 72.2326C64.0603 77.4259 69.9012 80.6934 76.4383 81.4648C89.9104 83.0559 102.158 73.3984 103.74 59.9352C104.502 53.4435 102.692 47.0308 98.6337 41.8775C94.5564 36.6995 88.7155 33.4259 82.1908 32.6566C75.667 31.8913 69.2379 33.7053 64.0706 37.7852C58.9094 41.8539 55.6414 47.6862 54.8691 54.1902C54.1051 60.681 55.916 67.0854 59.9748 72.2326Z" fill="white"/>
<path fill-rule="evenodd" clip-rule="evenodd" d="M59.9748 72.2326C64.0603 77.4259 69.9012 80.6934 76.4383 81.4648C89.9104 83.0559 102.158 73.3984 103.74 59.9352C104.502 53.4435 102.692 47.0308 98.6337 41.8775C94.5564 36.6995 88.7155 33.4259 82.1908 32.6566C75.667 31.8913 69.2379 33.7053 64.0706 37.7852C58.9094 41.8539 55.6414 47.6862 54.8691 54.1902C54.1051 60.681 55.916 67.0854 59.9748 72.2326V72.2326Z" stroke="#4C4C4C" stroke-width="1.8" stroke-linejoin="round"/>
<path fill-rule="evenodd" clip-rule="evenodd" d="M4.91101 108.087L12.316 117.453L52.101 86.1222C52.9668 85.4391 53.1149 84.1839 52.4311 83.319L47.5023 77.0851C46.8195 76.2202 45.5629 76.0723 44.696 76.7554L4.91101 108.087Z" fill="#F0F0F0"/>
<path fill-rule="evenodd" clip-rule="evenodd" d="M4.91101 108.087L12.316 117.453L52.101 86.1222C52.9668 85.4391 53.1149 84.1839 52.4311 83.319L47.5023 77.0851C46.8195 76.2202 45.5629 76.0723 44.696 76.7554L4.91101 108.087Z" stroke="#4C4C4C" stroke-width="1.8" stroke-linejoin="round"/>
<path fill-rule="evenodd" clip-rule="evenodd" d="M2.52902 112.505L7.45677 118.738C8.13855 119.601 9.39106 119.751 10.2579 119.074L12.3927 117.405L4.98776 108.037L2.86529 109.697C1.99327 110.378 1.84313 111.637 2.52902 112.505Z" fill="#CACACA"/>
<path fill-rule="evenodd" clip-rule="evenodd" d="M2.52902 112.505L7.45677 118.738C8.13855 119.601 9.39105 119.751 10.2579 119.074L12.3927 117.405L4.98776 108.037L2.86529 109.697C1.99327 110.378 1.84313 111.637 2.52902 112.505V112.505Z" stroke="#4C4C4C" stroke-width="1.8" stroke-linejoin="round"/>
<path fill-rule="evenodd" clip-rule="evenodd" d="M92.9841 56.7218C92.9841 64.2235 86.8829 70.3043 79.3561 70.3043C71.8313 70.3043 65.7301 64.2235 65.7301 56.7218C65.7301 49.2221 71.8313 43.1413 79.3561 43.1413C86.8829 43.1413 92.9841 49.2221 92.9841 56.7218Z" fill="#3A10E5"/>
<path d="M73.746 56.9403L77.3491 60.7174L84.9682 52.7283" stroke="white" stroke-width="2" stroke-linecap="round" stroke-linejoin="round"/>
</svg>
