<svg width="40" height="40" viewBox="0 0 40 40" fill="none" xmlns="http://www.w3.org/2000/svg">
<circle cx="20" cy="20" r="20" fill="#E10050"/>
<path fill-rule="evenodd" clip-rule="evenodd" d="M20 24C21.1 24 22 23.1 22 22C22 20.9 21.1 20 20 20C18.9 20 18 20.9 18 22C18 23.1 18.9 24 20 24ZM26 15H25V13C25 10.24 22.76 8 20 8C17.24 8 15 10.24 15 13V15H14C12.9 15 12 15.9 12 17V27C12 28.1 12.9 29 14 29H26C27.1 29 28 28.1 28 27V17C28 15.9 27.1 15 26 15ZM16.9 13C16.9 11.29 18.29 9.9 20 9.9C21.71 9.9 23.1 11.29 23.1 13V15H16.9V13ZM26 27H14V17H26V27Z" fill="white"/>
</svg>
