<svg width="95" height="95" viewBox="0 0 95 95" fill="none" xmlns="http://www.w3.org/2000/svg">
<path d="M91.8781 42.3037C89.9558 40.4023 87.6687 39.4298 85.0189 39.4298C82.369 39.4298 80.1342 40.3585 78.2107 42.2491C76.2884 44.1395 75.3527 46.4014 75.3527 49.013C75.3527 51.6246 76.2751 53.8429 78.1587 55.7225C80.0676 57.6239 82.3681 58.5418 85.0189 58.5418C87.6696 58.5418 89.9558 57.6129 91.8781 55.7225C93.8005 53.8211 94.7363 51.6248 94.7363 49.013C94.7363 46.4014 93.8005 44.1941 91.8781 42.3037Z" fill="#9A9A9A"/>
<path d="M73.326 67.3493C70.8316 67.3493 68.7528 68.1688 67.0376 69.8625C65.3226 71.5453 64.4912 73.545 64.4912 75.9492C64.4912 78.364 65.3093 80.4184 67.0376 82.1559C68.7395 83.8496 70.8316 84.6581 73.326 84.6581C75.7682 84.6581 77.7949 83.8386 79.51 82.1559C81.2772 80.4075 82.1608 78.364 82.1608 75.9492C82.1608 73.545 81.265 71.5564 79.51 69.8625C77.7815 68.1798 75.7682 67.3493 73.326 67.3493Z" fill="#9A9A9A"/>
<path d="M74.6254 33.0808C77.4835 33.0808 79.9779 32.0537 82.0567 30.0102C84.1354 27.956 85.1743 25.4972 85.1743 22.6343C85.1743 19.7167 84.1344 17.2581 82.0567 15.2038C80.03 13.2042 77.5356 12.1879 74.6254 12.1879C71.6631 12.1879 69.1687 13.2042 67.142 15.2038C65.0633 17.2581 64.0244 19.7168 64.0244 22.6343C64.0244 25.4972 65.0643 27.9558 67.142 30.0102C69.2207 32.0537 71.7152 33.0808 74.6254 33.0808Z" fill="#9A9A9A"/>
<path d="M45.8868 78.4618C43.7039 78.4618 41.8203 79.2158 40.2749 80.7675C38.755 82.2864 37.9889 84.144 37.9889 86.3513C37.9889 88.5039 38.7561 90.3615 40.2749 91.8259C41.8215 93.3338 43.7051 94.0879 45.8868 94.0879C48.1218 94.0879 49.9789 93.301 51.4989 91.8259C53.0453 90.3289 53.8369 88.5041 53.8369 86.3513C53.8369 84.144 53.0575 82.2537 51.4989 80.7129C49.9922 79.2268 48.122 78.4618 45.8868 78.4618Z" fill="#9A9A9A"/>
<path d="M45.8869 0.452393C42.7173 0.452393 40.0143 1.53415 37.7805 3.73061C35.5455 5.9379 34.4545 8.54952 34.4545 11.6747C34.4545 14.7999 35.5453 17.5099 37.7805 19.7171C40.0154 21.9135 42.7173 22.9953 45.8869 22.9953C49.0565 22.9953 51.7595 21.9135 53.9934 19.7171C56.2283 17.5098 57.3714 14.7997 57.3714 11.6747C57.3714 8.54967 56.2283 5.9379 53.9934 3.73061C51.7595 1.53415 49.0565 0.452393 45.8869 0.452393Z" fill="#9A9A9A"/>
<path d="M18.4999 27.8034C19.9034 27.8034 21.2006 27.3445 22.2415 26.3174C24.3214 24.2739 24.3214 20.9411 22.2415 18.8978C21.2005 17.8707 19.9034 17.4117 18.4999 17.4117C17.1485 17.4117 15.868 17.8817 14.8103 18.8978C12.6451 20.9631 12.6451 24.2521 14.8103 26.3174C15.868 27.3337 17.1496 27.8034 18.4999 27.8034Z" fill="#9A9A9A"/>
<path d="M18.4999 68.4198C16.5776 68.4198 14.94 69.1628 13.5109 70.5287C12.134 71.8289 11.4321 73.4462 11.4321 75.3368C11.4321 77.238 12.1074 78.8771 13.5109 80.2541C14.9145 81.6419 16.5775 82.3521 18.4999 82.3521C20.4223 82.3521 22.0853 81.6419 23.4889 80.2541C24.8924 78.8773 25.5676 77.238 25.5676 75.3368C25.5676 73.4462 24.8659 71.8291 23.4889 70.5287C22.0598 69.1628 20.4236 68.4198 18.4999 68.4198Z" fill="#9A9A9A"/>
<path d="M10.4978 44.7081C9.30258 43.5279 7.89902 42.9161 6.18402 42.9161C4.46901 42.9161 2.96237 43.5279 1.76717 44.7081C0.571978 45.8882 0 47.3197 0 49.0133C0 50.696 0.571978 52.1822 1.76717 53.3624C2.96237 54.5424 4.46901 55.1108 6.18402 55.1108C7.89902 55.1108 9.30149 54.5424 10.4978 53.3624C11.6928 52.1822 12.317 50.696 12.317 49.0133C12.3159 47.3197 11.6928 45.8881 10.4978 44.7081Z" fill="#9A9A9A"/>
</svg>
