<svg width="21" height="18" viewBox="0 0 21 18" fill="none" xmlns="http://www.w3.org/2000/svg">
<path d="M9.70815 0.750009C10.6482 0.750009 11.5249 1.43891 11.8414 2.54311C11.9576 3.00467 12.0048 3.46721 12.0501 3.91302L12.0927 4.31848C12.2552 5.67167 12.2552 12.3195 12.0927 13.6825L12.0501 14.1027C12.0095 14.5269 11.968 14.9658 11.848 15.4343C11.5315 16.5355 10.6878 17.25 9.72987 17.25C9.69964 17.25 9.66941 17.25 9.6354 17.249C9.10635 17.249 8.531 16.9183 8.20507 16.63L5.02792 13.9344H3.39636C2.13703 13.9344 1.21497 13.0064 1.04775 11.5706C0.855022 10.1347 0.892812 7.67143 1.04775 6.36647C1.23008 5.00738 2.1956 4.06556 3.39636 4.06556H5.02792L8.14461 1.40939C8.52061 1.07675 9.18382 0.748049 9.70815 0.750009ZM17.3955 0.952651C17.7715 0.68103 18.2882 0.780427 18.5462 1.16916C19.9595 3.28603 20.7379 6.06817 20.7379 8.99991C20.7379 11.9336 19.9595 14.7148 18.5462 16.8316C18.3922 17.0629 18.138 17.2017 17.8669 17.2017C17.6987 17.2017 17.5362 17.1485 17.3964 17.0481C17.0223 16.7755 16.9297 16.2392 17.1886 15.8495C18.4111 14.017 19.0847 11.5842 19.0847 8.99991C19.0847 6.41656 18.4111 3.98378 17.1886 2.15132C16.9297 1.76259 17.0223 1.22526 17.3955 0.952651ZM14.5469 3.73686C14.9238 3.46622 15.4387 3.56365 15.6985 3.95337C16.6111 5.32132 17.1147 7.11342 17.1147 9C17.1147 10.8866 16.6111 12.6787 15.6985 14.0466C15.5436 14.2779 15.2904 14.4167 15.0193 14.4167C14.8511 14.4167 14.6877 14.3635 14.5478 14.2631C14.1737 13.9905 14.0811 13.4532 14.3409 13.0645C15.0637 11.9809 15.4614 10.5372 15.4614 9C15.4614 7.4618 15.0637 6.01907 14.3409 4.93553C14.0811 4.5468 14.1737 4.00947 14.5469 3.73686Z" fill="#655F5F"/>
</svg>
