<svg width="50" height="46" viewBox="0 0 50 46" fill="none" xmlns="http://www.w3.org/2000/svg">
<g filter="url(#filter0_dd_2770_7991)">
<path d="M2 17C2 9.45753 2 5.68629 4.34315 3.34315C6.68629 1 10.4575 1 18 1H32C39.5425 1 43.3137 1 45.6569 3.34315C48 5.68629 48 9.45753 48 17V27C48 34.5425 48 38.3137 45.6569 40.6569C43.3137 43 39.5425 43 32 43H18C10.4575 43 6.68629 43 4.34315 40.6569C2 38.3137 2 34.5425 2 27V17Z" fill="white"/>
<path d="M22.625 15.5H19.375V28.5H22.625V15.5Z" stroke="#3A10E5" stroke-width="2" stroke-linecap="round" stroke-linejoin="round"/>
<path d="M30.625 15.5H27.375V28.5H30.625V15.5Z" stroke="#3A10E5" stroke-width="2" stroke-linecap="round" stroke-linejoin="round"/>
<path d="M4.34315 40.6569L5.75736 39.2426L4.34315 40.6569ZM45.6569 40.6569L47.0711 42.0711L45.6569 40.6569ZM45.6569 3.34315L47.0711 1.92893L45.6569 3.34315ZM4.34315 3.34315L2.92893 1.92893L4.34315 3.34315ZM18 3H32V-1H18V3ZM46 17V27H50V17H46ZM32 41H18V45H32V41ZM4 27V17H0V27H4ZM18 41C14.1722 41 11.5026 40.9958 9.48832 40.7249C7.53159 40.4619 6.49539 39.9807 5.75736 39.2426L2.92893 42.0711C4.53404 43.6762 6.55504 44.3666 8.95533 44.6893C11.2981 45.0042 14.2853 45 18 45V41ZM0 27C0 30.7147 -0.00424743 33.7019 0.310728 36.0447C0.633438 38.445 1.32382 40.466 2.92893 42.0711L5.75736 39.2426C5.01932 38.5046 4.53813 37.4684 4.27506 35.5117C4.00425 33.4974 4 30.8278 4 27H0ZM46 27C46 30.8278 45.9958 33.4974 45.7249 35.5117C45.4619 37.4684 44.9807 38.5046 44.2426 39.2426L47.0711 42.0711C48.6762 40.466 49.3666 38.445 49.6893 36.0447C50.0042 33.7019 50 30.7147 50 27H46ZM32 45C35.7147 45 38.7019 45.0042 41.0447 44.6893C43.445 44.3666 45.466 43.6762 47.0711 42.0711L44.2426 39.2426C43.5046 39.9807 42.4684 40.4619 40.5117 40.7249C38.4974 40.9958 35.8278 41 32 41V45ZM32 3C35.8278 3 38.4974 3.00425 40.5117 3.27506C42.4684 3.53813 43.5046 4.01932 44.2426 4.75736L47.0711 1.92893C45.466 0.323821 43.445 -0.366562 41.0447 -0.689272C38.7019 -1.00425 35.7147 -1 32 -1V3ZM50 17C50 13.2853 50.0042 10.2981 49.6893 7.95533C49.3666 5.55504 48.6762 3.53404 47.0711 1.92893L44.2426 4.75736C44.9807 5.49539 45.4619 6.53159 45.7249 8.48832C45.9958 10.5026 46 13.1722 46 17H50ZM18 -1C14.2853 -1 11.2981 -1.00425 8.95533 -0.689272C6.55504 -0.366562 4.53404 0.323821 2.92893 1.92893L5.75736 4.75736C6.49539 4.01932 7.53159 3.53813 9.48832 3.27506C11.5026 3.00425 14.1722 3 18 3V-1ZM4 17C4 13.1722 4.00425 10.5026 4.27506 8.48832C4.53813 6.53159 5.01932 5.49539 5.75736 4.75736L2.92893 1.92893C1.32382 3.53404 0.633438 5.55504 0.310728 7.95533C-0.00424743 10.2981 0 13.2853 0 17H4Z" fill="#3A10E5"/>
</g>
<defs>
<filter id="filter0_dd_2770_7991" x="0" y="0" width="50" height="46" filterUnits="userSpaceOnUse" color-interpolation-filters="sRGB">
<feFlood flood-opacity="0" result="BackgroundImageFix"/>
<feColorMatrix in="SourceAlpha" type="matrix" values="0 0 0 0 0 0 0 0 0 0 0 0 0 0 0 0 0 0 127 0" result="hardAlpha"/>
<feOffset dy="1"/>
<feGaussianBlur stdDeviation="1"/>
<feComposite in2="hardAlpha" operator="out"/>
<feColorMatrix type="matrix" values="0 0 0 0 0.227451 0 0 0 0 0.0627451 0 0 0 0 0.898039 0 0 0 0.2 0"/>
<feBlend mode="normal" in2="BackgroundImageFix" result="effect1_dropShadow_2770_7991"/>
<feColorMatrix in="SourceAlpha" type="matrix" values="0 0 0 0 0 0 0 0 0 0 0 0 0 0 0 0 0 0 127 0" result="hardAlpha"/>
<feOffset dy="1"/>
<feGaussianBlur stdDeviation="1"/>
<feComposite in2="hardAlpha" operator="out"/>
<feColorMatrix type="matrix" values="0 0 0 0 0.227451 0 0 0 0 0.0627451 0 0 0 0 0.898039 0 0 0 0.2 0"/>
<feBlend mode="normal" in2="effect1_dropShadow_2770_7991" result="effect2_dropShadow_2770_7991"/>
<feBlend mode="normal" in="SourceGraphic" in2="effect2_dropShadow_2770_7991" result="shape"/>
</filter>
</defs>
</svg>
