<svg width="22" height="22" viewBox="0 0 22 22" fill="none" xmlns="http://www.w3.org/2000/svg">
<path d="M2.75 5.5H4.58333H19.25" stroke="#F61414" stroke-width="2" stroke-linecap="round" stroke-linejoin="round"/>
<path d="M7.33301 5.50001V3.66668C7.33301 3.18045 7.52616 2.71413 7.86998 2.37031C8.2138 2.0265 8.68011 1.83334 9.16634 1.83334H12.833C13.3192 1.83334 13.7856 2.0265 14.1294 2.37031C14.4732 2.71413 14.6663 3.18045 14.6663 3.66668V5.50001M17.4163 5.50001V18.3333C17.4163 18.8196 17.2232 19.2859 16.8794 19.6297C16.5356 19.9735 16.0692 20.1667 15.583 20.1667H6.41634C5.93011 20.1667 5.4638 19.9735 5.11998 19.6297C4.77616 19.2859 4.58301 18.8196 4.58301 18.3333V5.50001H17.4163Z" stroke="#F61414" stroke-width="2" stroke-linecap="round" stroke-linejoin="round"/>
</svg>
