<svg width="22" height="22" viewBox="0 0 22 22" fill="none" xmlns="http://www.w3.org/2000/svg">
<path d="M9.70815 2.75001C10.6482 2.75001 11.5249 3.43891 11.8414 4.54311C11.9576 5.00467 12.0048 5.46721 12.0501 5.91302L12.0927 6.31848C12.2552 7.67167 12.2552 14.3195 12.0927 15.6825L12.0501 16.1027C12.0095 16.5269 11.968 16.9658 11.848 17.4343C11.5315 18.5355 10.6878 19.25 9.72987 19.25C9.69964 19.25 9.66941 19.25 9.6354 19.249C9.10635 19.249 8.531 18.9183 8.20507 18.63L5.02792 15.9344H3.39636C2.13703 15.9344 1.21497 15.0064 1.04775 13.5706C0.855022 12.1347 0.892812 9.67143 1.04775 8.36647C1.23008 7.00738 2.1956 6.06556 3.39636 6.06556H5.02792L8.14461 3.40939C8.52061 3.07675 9.18382 2.74805 9.70815 2.75001ZM17.3955 2.95265C17.7715 2.68103 18.2882 2.78043 18.5462 3.16916C19.9595 5.28603 20.7379 8.06817 20.7379 10.9999C20.7379 13.9336 19.9595 16.7148 18.5462 18.8316C18.3922 19.0629 18.138 19.2017 17.8669 19.2017C17.6987 19.2017 17.5362 19.1485 17.3964 19.0481C17.0223 18.7755 16.9297 18.2392 17.1886 17.8495C18.4111 16.017 19.0847 13.5842 19.0847 10.9999C19.0847 8.41656 18.4111 5.98378 17.1886 4.15132C16.9297 3.76259 17.0223 3.22526 17.3955 2.95265ZM14.5469 5.73686C14.9238 5.46622 15.4387 5.56365 15.6985 5.95337C16.6111 7.32132 17.1147 9.11342 17.1147 11C17.1147 12.8866 16.6111 14.6787 15.6985 16.0466C15.5436 16.2779 15.2904 16.4167 15.0193 16.4167C14.8511 16.4167 14.6877 16.3635 14.5478 16.2631C14.1737 15.9905 14.0811 15.4532 14.3409 15.0645C15.0637 13.9809 15.4614 12.5372 15.4614 11C15.4614 9.4618 15.0637 8.01907 14.3409 6.93553C14.0811 6.5468 14.1737 6.00947 14.5469 5.73686Z" fill="#655F5F"/>
</svg>
